<svg viewBox="0 0 398 366" xmlns="http://www.w3.org/2000/svg" fill-rule="evenodd" clip-rule="evenodd" stroke-linejoin="round" stroke-miterlimit="2">
  <path d="M150.065 100.571l-.003.001.003-.001zm18.324 136.415l.03-.041-.03.041zM66.565 183.715v-.005l.036.002-.036.003zm.65-12.715a124.398 124.398 0 013.958-20.912l-.638 3.981-.01.06-.003.057-.255 6.174-.075.006.014.191-2.365 7.174-.014.047-.017.082-.596 3.14zm13.4-44.854a127.996 127.996 0 0113.076-20.271l-1.59 2.559-.032.054-2.77 5.141-.013.025-.026.061-1.476 3.507-.05.048-.033.033-.038.046-6.105 7.347-.048.059-.026.04-.87 1.351zm24.908-33.379a132.412 132.412 0 0117.11-13.978l.57.951 2.72-1.628.961-.458-1.95 1.539-.03.024-.045.042-3.848 3.694-.047.047-3.252 3.567-4.01 1.666-.036.016-.065.035-5.142 2.854-.07.043-2.658 1.779-.208-.193zm24.49-18.693a133.934 133.934 0 018.531-4.658l-.047.025-.02.012-5.872 3.855-2.592.766zm130.172-4.549a134 134 0 018.233 4.498l-2.308-.674-5.925-3.824zm15.668 9.243a132.539 132.539 0 0117.143 14.001l-.197.193-2.556-1.773-.038-.026-.044-.025-5.116-2.854-.052-.029-.052-.022-3.974-1.643-1.39-1.737-.052-.064-.03-.03-5.677-5.496-.046-.045-.03-.025-1.833-1.444.712.34 2.633 1.643.6-.964zm29.073 27.237a128.972 128.972 0 016.622 9.246l-.98.556 1.914 3.371-1.519-1.829-.037-.046-.032-.033-.027-.025-1.443-3.574-.02-.051-.036-.061-2.829-5.082-.036-.059-1.577-2.413zm22.477 44.317a124.456 124.456 0 013.751 19.402l-.334-1.856-.018-.095-.013-.042-2.593-7.849.07-2.558.002-.093-.007-.052-.858-6.857zm3.782 47.214a124.716 124.716 0 01-3.863 19.942l.854-6.892.006-.043-.002-.093-.046-2.683 2.655-8.056.013-.043.018-.094.365-2.038zm-7.847 31.84c-.196.498-.386.998-.587 1.492l-1.02-.47-2.964 6.388-3.185 5.521-2.628 3.485.961-4.228.015-.074.882-6.014.008-.049v-.092l.046-5.801 2.176-2.443.036-.039.046-.07 5.832-8.677.037-.054.022-.044 2.901-5.633-.85 6.878-1.5 5.922-1.297 3.62 1.07.382zm-7.722 16.201a127.663 127.663 0 01-6.552 10.362l1.503-3.02.02-.035.023-.07.421-1.152 4.585-6.085zm-13.584 19.488a131.178 131.178 0 01-2.597 2.986c-1.315-.599-2.736-1.048-4.215-1.379l5.606-4.601.055-.046 5.303-5.064.045-.051.267-.291-.186.374-3.006 4.567-.002-.001-2.138 2.858.868.648zm-40.12 32.028a133.497 133.497 0 01-7.388 3.559l1.481-1.312.068-.06.024-.029 1.026-1.176 3.283-1.283.046-.02 1.46-.663v.984zm-11.543 3.382l2.086-.65-.243.216-1.807.979a23.37 23.37 0 01-.036-.545zm-95.018 4.618a135.572 135.572 0 01-6.138-2.253l.515-.999-3.499-1.798-.196-.181 7.64 2.368 1.325 2.235.036.059-.005.004c.125.202.231.39.322.565zm-11.452-4.481a133.528 133.528 0 01-5.94-2.824c.192-.302.394-.596.601-.882l2.883 1.181.973 1.153.037.044.048.044 1.398 1.284zm-38.45-25.942a131.077 131.077 0 01-8.922-9.553l.921-.711-2.176-2.812-2.968-4.625-.144-.289.216.233.035.039 5.223 5.065.042.04.032.025 5.942 4.726.055.039 4.234 2.922.351 1.045.027.075 2.004 4.679.032.072.031.053 2.107 3.481-6.245-5.427-.798.923zm-15.62-18.203a128.342 128.342 0 01-6.204-9.622l.182-.256 3.747 5.109.018.024.057.062.033.035.357.992.025.067.018.038 1.766 3.551zM72.8 214.446l-.244-1.822.93 1.822h-.686zm12.612 29.882l.322 1.518-.71-.97.388-.548zm-15.032-29.882a124.376 124.376 0 01-3.057-16.918l1.301 5.211.024.077 1.688 5.007-.07 2.62-.002.08.01.075.516 3.848h-.41zm50.638 61.073l.004.002-.004-.002zm92.238-134.565v-.005.005zm-82.674 30.334v.002-.002zm35.457-75.24l.378 3.825 2.04 4.486 2.64 3.52 4.24 3.707 4.286 2.658 6.14 2.324 6.675 1.507 6.81.624 6.932-.622 5.65-1.234 5.2-1.786 5.56-2.902 4.454-3.653 3.197-4.143 1.598-3.758.735-4.583-.576-3.839-1.762-4.424-3.197-4.262-4.444-3.625-4.534-2.392-6.246-2.28-6.748-1.36-5.82-.316-5.617.316-6.738 1.358-6.208 2.278-5.388 3.083-3.63 2.939-3.212 4.277-1.673 3.738-.742 4.539zm-64.702 2.969l-.664.715-3.746 4.716-3.119 5.017-2.138 3.97.74-.722.038-.036.047-.038 5.328-4.119.041-.031.038-.024 8.813-5.572.06-.037.031-.017 1.23-.597.25-.783.027-.083.034-.069 3.234-6.272.026-.05.03-.045L115 89.854l-.497.207-5.036 2.796-4.75 3.181-3.379 2.979zm-11.877 19.352l-.534 1.268-2.258 8.052-.8 5.389-.136 2.619.54-.616.038-.043 7.785-7.899.054-.053.04-.033 9.187-7.21.036-.027.043-.028 1.181-.758.497-6.233.006-.072.013-.061.97-4.444.005-.021.024-.074 1.01-3.157-8.16 5.16-5.239 4.05-4.302 4.191zm231.786 17.968l.17.576.015.056.01.068.888 5.654.01.064.002.049.242 5.812-.016.001.388.574.027.04.032.062 2.964 5.734-.84-6.715-1.46-5.954-1.66-4.42-.772-1.601zm-.788 9.153l-.106-2.557-.867-5.521-2.435-8.382-.934-2.112-.622-.993-2.95-3.554 1.36 4.732.02.073.01.087.954 8.234.006.041v.079l-.022 2.36 2.173 2.469.043.048.035.053 3.335 4.943zm-188.407-40.927l.24-2.604.004-.058.718-4.731.015-.086.025-.079.753-2.281-5.864 1.5-6.97 2.342-6.786 2.904-4.516 2.197-1.599 4.995-.953 4.363-.37 4.652 6.882-4.414.055-.035.032-.016 11.148-5.672.074-.031 7.112-2.946zm2.5-12.092l.064-.196.027-.078.035-.07 2.31-4.446.008-.01.048-.076 2.667-4.05-1.04.074-6.662.949-6.168 1.364-5.85 1.849-1.105.459-1.556 1.707-4 6.05-2.525 4.897 2.507-1.219.047-.02 6.852-2.931.075-.028 7.095-2.384.07-.025 7.1-1.816zm6.986-11.059l2.146-2.362.056-.058 4.16-3.861.038-.036.071-.05 1.972-1.38-.434-.06-5.348-.087-7.393.627-3.342.987-.944.621-6.325 4.986-3.77 3.619-.714.785 3.538-1.118.011-.004.075-.017 6.302-1.394.073-.015 6.72-.957.071-.008 3.037-.218zm10.845-9.426l.4-.28.05-.036 5.21-3.171.072-.039 5.21-2.604-3.077-.935-5.172-.313-2.472.353-7.947 3.555-5.106 2.621-1.346.885 5.846-.496.016-.001.081.001 5.503.089.072.002.05.006 2.61.363zm14.09-7.256l7.806-2.561.067-.02 5.781-1.444-.468-.472-2.652-1.488-1.588-.16-4.766.864-9.14 2.353-2.902 1.023 1.864.113.111.007.12.036 5.766 1.749zm15.997-4.495l5.2-.888.048-.008.064-.004 10.464-.61v-2.49l-8.6.381-9.644 1.138v-.001l-.518.094 1.267.711.118.067.102.101 1.5 1.509zm17.775-1.529l5.963.224.07.004 6.893.752.05.007.06.012 2.734.61 1.76-1.715.097-.093.121-.067 1.137-.618-.425-.069v.001l-9.714-1.137-8.746-.382v2.471zm18.094 2.127l5.886 1.312.064.015.03.009 7.831 2.561 5.653-1.749.117-.035.117-.008 1.861-.113-5.789-1.824-9.209-2.25-1.532-.246-1.754.233-2.546 1.385-.729.71zm16.948 5.013l5.194 2.614.066.036 5.268 3.171.06.039.368.26 2.43-.343.048-.006.072-.002 5.47-.089.082-.001.016.001 6.023.502-1.373-.886-7.754-3.972-5.495-2.234-2.294-.328-5.196.313-2.985.925zm13.337 7.797l1.991 1.402.056.039.042.039 4.238 3.861.026.024.047.054 2.081 2.358 3.003.21.08.008 6.517.957.066.011L273.162 84l.081.025 3.862 1.196-4.629-4.483-6.325-4.989-.89-.574-3.523-1.029-7.525-.628-5.316.087-.273.038zm10.275 9.903l2.752 4.033.046.067.025.051 2.22 4.446.025.047.025.078.07.206 7.016 1.817.064.021 7.16 2.384.081.031 9.37 4.058-2.49-4.804-2.51-3.977-3.014-3.766-1.115-.461-5.899-1.827-6.357-1.387-6.438-.945-1.03-.072zm5.934 11.187l.774 2.265.024.073.016.088.505 3.073.008.069.391 4.283 7.125 2.925.07.031 11.162 5.672.044.022.052.033 6.92 4.483-.139-2.484-1.142-6.603-1.682-5.023-1.262-.709-10.069-4.36-7.063-2.353-5.734-1.485zm1.632 11.969l-.3 3.394-.013.078-.505 2.979-.017.091-.023.068-1.16 3.38 3.003 1.773.047.031 11.045 7.413.068.047 10.176 8.098.06.051.45.42 1.35-3.941 1.14-6.561.21-3.852-8.026-5.199-11.099-5.639-6.406-2.631zm-2.744 11.878l-1.999 4.005-.022.042-.057.082-2.049 2.928-.035.051-1.62 2.04 9.292 8.514.035.031 6.391 6.444.032.03 6.01 6.622.04.047.702.871.904-1.011 3.934-6.108 3.18-6.202.128-.375-1.072-.998-10.126-8.059-10.962-7.356-2.706-1.598zm-7.023 10.709l-.49.618-.033.04-.045.045-3.889 3.854-.044.043-.05.039-4.592 3.546 10.203 13.779.034.051 7.964 12.289.401-.259 4.32-3.134 5.846-5.308 2.772-3.1-.88-1.091-6.002-6.61-6.359-6.412.001-.002-9.157-8.388zm-10.81 9.282l-3.53 2.295-.032.022-.05.025-5.489 2.864-.069.037-.018.006-3.142 1.282 3.567 6.953.022.05 7.272 16.371.021.039 2.134 5.474 4.667-2.068v.001l7.77-3.981 5.071-3.269-7.942-12.252-10.252-13.849zm-14.182 7.285l-.932.38-.082.027-6.389 1.979-.05.015-.04.009-6.76 1.43 1.894 7.724.008.027 4.673 21.766.007.035.208 1.167 3.688-.681 9.107-2.469v.001l7.67-2.572-2.128-5.453.002-.001-7.234-16.285-3.642-7.099zm-16.204 4.252l-2.232.472-.046.01-.05.005-6.893.76-.085.004-5.95.141v31.193l8.768-.225 9.67-1.026 3.596-.664-.208-1.172-4.67-21.745h.001l-1.9-7.753zm-17.256 1.391l-5.813-.14-.064-.001-.022-.003-6.722-.76-.046-.005-.048-.01-2.322-.482-1.9 7.767-3.799 17.322h-.002l-1.11 5.615 3.647.643 9.575 1.024 8.626.223v-31.193zm-16.989-1.806l-6.872-1.427-.052-.011-.073-.025-7.373-2.566-1.665 3.163-9.266 20.435-2.079 5.327 1.78.721 8.955 2.808 9.102 2.211.718.127 1.121-5.671.003-.02 3.8-17.322.008-.023 1.893-7.727zM164.981 145l-1.076-.374-.075-.026-.035-.017-5.67-2.761-.068-.039-5.207-3.048-.07-.043-.03-.021-2.33 2.814-10.57 14.575-5.303 8.715.296.212v.001l4.668 2.936 7.78 3.997 4.737 1.919 2.077-5.325.02-.047 9.29-20.487.028-.055 1.538-2.926zm-13.867-7.484l-3.109-2.197-.063-.043-.05-.05-4.159-3.937-.054-.055-1.774-1.97-2.655 2.295-6.627 6.143-6.328 6.381-5.867 6.594-.87 1.054 2.857 3.182 5.746 5.281 4.76 3.415 5.251-8.63.043-.066 10.611-14.63.04-.051 2.248-2.716zm-10.543-9.733l-.535-.594-.047-.052-.044-.065-2.9-4.382-.039-.057-.018-.033-2.12-4.082-2.83 1.648-7.466 4.784-6.877 5.129-7.68 6.523.121.312 3.214 6.298 3.972 6.033.885.984.682-.825.025-.027 5.89-6.622.04-.038 6.39-6.444.027-.027 6.63-6.146.03-.024 2.65-2.293zm-6.41-11.16l-1.103-3.322-.024-.071-.008-.039-.629-2.978-.016-.066-.004-.063-.259-3.391-6.35 2.63-11.115 5.654-8.015 5.14.483 6.044 1.38 6.526.751 1.945 7.192-6.108.046-.038 6.9-5.145.057-.039 7.518-4.818.04-.023 3.156-1.838zm.11-14.426l-.14 1.505 2.554-1.057.041-.017.044-.014 12.746-3.96.04-.012 8.577-2.288.04-.011.05-.008 5.913-.992.7-4.28.002-.016-9.19.295-8.258.867-11.299 1.968-1.115 3.376-.705 4.644zm-.212 3.692l.305 3.987.607 2.872.947 2.852 6.846-3.985.058-.032 12.205-6.009.071-.031 9.895-3.984-.458-1.011-.066-.142-.016-.169-.285-2.877-5.566.934-8.537 2.277-12.665 3.935-3.34 1.383zm2.538 11.623l2.148 4.135 2.822 4.259.515.573 2.665-2.303.058-.048 14.775-10.997.055-.039 8.698-5.581-1.539-2.05-.068-.093-.045-.095-.862-1.897-9.94 4.002-12.149 5.981-7.133 4.153zm6.82 10.447l1.721 1.914 4.076 3.858 3.175 2.244 8.041-9.714.052-.053 12.341-12.796.043-.04.723-.669-3.88-3.395-.078-.067-.063-.084-.034-.046-8.802 5.648-14.714 10.952-2.602 2.248zm10.616 9.162l4.965 2.906 5.638 2.744 1.283.446 5.685-10.804.024-.043 8.736-14.741.023-.035.485-.744-2.034-.77-.083-.031-.088-.055-3.416-2.119-.99.918-12.297 12.75-7.93 9.578zm13.792 6.759l7.018 2.444 6.888 1.43 2.816-11.506.01-.039 4.546-15.797.003-.016.291-.965-4.145-.935-.073-.016-.06-.023-2.338-.885-.7 1.073-8.725 14.719-5.53 10.516zm15.858 4.279l2.208.458 6.653.753 5.702.137v-28.9l-6.062-.556-.076-.006-.053-.013-.704-.159-.33 1.101h-.003l-4.542 15.781-2.793 11.404zm16.562 1.348l5.842-.138 6.823-.752 2.117-.447-1.77-7.221-5.57-19.983-.326-1.102-.787.172-.028.007-.098.008-6.203.557v28.899zm16.732-1.75l6.79-1.436 6.274-1.943.75-.306-5.483-10.686-8.748-14.722-.702-1.093-3.439 1.18-.058.022-.054.011-2.992.653.284.967.003.015 5.576 20.003.008.032 1.791 7.303zm15.665-4.439l3.293-1.342 5.37-2.803 3.324-2.161-11.066-12.801-10.119-10.256-5.575 2.911-.069.036.447.696.02.031 8.758 14.741.027.055 5.59 10.893zm13.672-7.403l4.564-3.525 3.802-3.766.493-.621-13.685-10.588v.001l-7.503-5.224.001-.001-4.845-3.144-.588.762-.07.092-.086.069-3.362 2.757 9.968 10.105.043.047 11.268 13.036zm10.098-9.472l1.586-1.996 1.955-2.794 2.043-4.091-7.13-4.21-12.315-5.97-9.757-3.926-.765 1.798-.049.114-.08.104-1.538 1.992 4.735 3.073.027.016 7.503 5.224.04.031 13.745 10.635zm6.28-10.787l1.003-2.923.48-2.825.354-4.001-3.402-1.397-12.604-3.948-13.026-3.142-1.1-.182-.61 3.803-.02.129-.047.106-.147.344 9.751 3.923.063.028 12.39 6.009.075.038 6.84 4.038zm1.782-11.925l-.293-3.201-.487-2.963-1.157-3.387-11.422-1.971-8.143-.867-8.575-.338v.002h-.72l.218.554.048.116.016.106.517 3.449 1.38.228.074.015 13.113 3.165.062.015 12.641 3.96.082.031 2.646 1.086zM261.637 92l-1.678-3.361-2.936-4.304-.865-.981-3.165-.221-7.022.079v.001l-7.429.579-7.5 1.04-.438.093 1.304 1.74.08.106.05.124.841 2.112h1.518l.04.004 8.66.342.065.004 8.205.874.063.008L261.637 92zm-7.36-10.777l-.696-.788-4.168-3.797-3.674-2.588-2.329.33-8.845 1.998-6.024 1.961-3.065 1.307 2.917 2.379.094.079.073.096.725.967 1.36-.292.07-.011 7.605-1.054.062-.008 7.44-.58h.067l7.153-.08h.073l1.161.081zm-11.113-8.822l-3.625-2.182-5.523-2.779-1.772-.579-5.578 2.757-6.392 4.237-1.99 1.579.525.192.068.025.056.03 4.675 2.466.083.043.04.032 4.071-1.736.043-.017.04-.014 6.1-1.985.035-.011.055-.014 8.937-2.019.082-.015.07-.01zm-13.629-6.426l-5.806-1.899-7.094-1.582-.512.5-3.205 4.17-3.156 5.586 2.53.51.084.018.06.022 3.65 1.332 2.981-2.366.07-.051 6.478-4.294.052-.033.058-.03 3.81-1.883zm-15.157-3.984l-1.465-.326-6.826-.746-5.842-.219v10.878l4.993.271.07.003.074.016 2.33.47 3.518-6.227.045-.078.03-.039 3.073-4.003zm-16.132-1.269l-10.289.599-3.804.65 3.231 4.068.045.057.041.072 3.5 6.173 2.348-.473.077-.016.063-.003 4.788-.269V60.722zm-16.458 1.654l-.354.06-6.579 1.644-5.76 1.89 3.833 1.888.041.021.063.042 6.527 4.294.054.035.032.026 2.894 2.389 3.721-1.365.054-.02.095-.02 2.505-.505-3.136-5.531-3.289-4.143-.7-.705zm-15.402 4.482l-1.787.586-5.533 2.765-3.615 2.202.053.011 5.89 1.185.072.015.02.005 6.055 1.803.075.027 7.513 2.894 4.64-2.654.074-.042.076-.029.452-.166-1.959-1.617-6.407-4.216-5.619-2.769zm-13.507 7.209l-3.66 2.56-4.085 3.792-.715.787.91-.064h.078l7.336.08h.068l7.437.58.062.008 7.594 1.054.08.015 1.416.316.748-.995.075-.099.093-.076 2.838-2.299-6.2-2.388-6.019-1.792-5.773-1.161-2.283-.318zm-10.402 9.28l-.919 1.012-2.802 4.256L137 91.994l10.071-1.755.066-.008 8.331-.874.071-.004 10.173-.327.97-2.169.046-.102.067-.09 1.294-1.722-.485-.108-7.515-1.043-7.426-.579v-.001l-7.204-.079-2.98.214zm-37.343 43.025l-.402-5.033-.156.1-9.112 7.151-7.719 7.833-2.188 2.499.152 4.92.77 5.29 2.254 7.646 1.18-1.676.05-.063 7.704-9.262.037-.042.025-.028 8.815-8.768.057-.055 1.044-.886-1.035-2.673-.03-.079-.017-.077-1.41-6.672-.014-.068-.005-.057zm178.412-36.559l.81 1.009.048.062.018.029 2.554 4.048.043.074 3.25 6.272.032.059.026.082.277.825 4.244 2.383.06.039 5.747 3.782.057.039 5.39 4.119.045.035.044.043.926.898-2.3-4.129-4.857-7.44-1.344-1.587-.717-.737-4.152-3.675-4.596-3.188-5.02-2.801-.585-.241zm8.002 15.279l1.012 3.022.027.083.012.065 1.16 6.717.01.049.002.064.225 4 1.08.7.056.039 6.282 4.705.052.039.027.024 8.311 7.633.048.044.026.03 3.023 3.431.001-.056-.94-8.105-2.28-7.941-.506-1.254-4.329-4.195-5.336-4.079-5.639-3.71-2.324-1.305zm2.376 16.328l-.153 2.777-.003.065-.009.047-1.16 6.688-.013.078-.026.074-1.666 4.864 4.145 3.863.035.035 5.664 5.808.05.054 7.764 9.262.011.014.042.061 1.17 1.685 1.484-4.968 1.571-7.997.044-5.1-4.467-5.072-8.24-7.566-6.198-4.643-.045-.029zm-3.779 16.621l-3.126 6.097-.032.064-.014.022-3.985 6.184-.035.057-.062.068-1.184 1.323 6.26 7.751.03.043 4.98 6.89.04.054 4.41 7.08.01.018 1.291 2.17 4.56-6.107 4.304-7.356 1.322-3.351-1.905-2.746-7.742-9.236-5.597-5.74-3.525-3.285zm-9.784 15.32l-2.606 2.914-.05.056-.019.018-5.914 5.369-.047.043-.038.028-4.367 3.168-.048.031-.43.278.658 1.019.043.073 8.303 15.497.027.051 4.861 10.515.5-.342 5.305-4.043 4.954-4.358 5.9-6.156-1.66-2.795-4.407-7.071-4.922-6.811-6.043-7.484zm-15.194 12.985l-5.1 3.288-.022.014-.065.033-7.886 4.04-.05.027-4.743 2.103 3.594 9.212.02.058 5.378 16.811.012.039.846 3.063 2.497-.944 9.665-4.785 6.314-3.405 3.435-2.341-4.998-10.813-8.254-15.406-.643-.994zm-19.734 10.206l-7.819 2.621-.053.02-9.106 2.47-.082.015-3.78.699 2.557 14.345v.02l2.554 16.341 4.627-.952 11.28-2.95 7.086-2.462v-.001l2.583-.976-.894-3.228-5.35-16.731-3.603-9.231zm-22.803 6.187l-3.632.671-.078.012-9.727 1.032-.078.004-8.87.228v29.76h1.147c.82 0 1.58.247 2.215.67a3.978 3.978 0 012.215-.67h15.206l5.735-.757.991-.204-2.568-16.42-.003.001-2.553-14.327zm-24.384 1.946l-8.732-.227-.08-.004-9.654-1.032-.068-.008-3.7-.652-1.95 9.867-3.122 20.912.73.148 5.732.757h20.844v-29.761zm-24.2-2.27l-.677-.119-.06-.015-9.218-2.239-.064-.016-9.015-2.827-.077-.027-1.783-.722-3.643 9.334-5.368 16.711-.88 3.277 9.597 3.411 11.166 2.951 4.958 1.008 3.107-20.826.01-.045 1.947-9.856zm-22.744-6.715l-4.79-1.939-.029-.012-.054-.028-7.862-4.04-.074-.044-4.762-2.994-.052-.031-.174-.125-2.922 4.801-7.98 15.266-3.155 7.06.561.415 5.925 3.654 6.28 3.316 9.178 4.032.821-3.052.016-.047 5.401-16.811.02-.058 3.652-9.363zm-19.423-10.379l-4.918-3.528-.037-.026-.058-.053-5.84-5.369-.037-.035-.029-.031-2.69-2.994-3.397 4.103-5.129 6.868h-.002l-6.82 10.452-1.747 2.945 1.44 1.803 4.381 4.243 4.881 4.329 5.93 4.376 2.986-6.685.026-.055 8.03-15.355.03-.059 3-4.929zm-14.959-13.538l-1.12-1.246-.038-.042-.052-.079-4.073-6.184-.048-.074-.01-.02-3.155-6.184-.514.437-8.747 8.701-7.633 9.176-1.887 2.683 2.571 5.859 4.66 7.452 2.97 3.723 1.36-2.293.023-.034 6.88-10.542.035-.055 5.142-6.884.031-.039 3.605-4.355zm197.925-10.814l-.025 2.983v.107l-.017.075-1.596 8.125-.009.049-.013.044-1.597 5.347-.028.078-.4 1.014 3.996 5.76.032.044.028.052 5.24 9.774.02.039.018.043 2.342 5.558 1.605-4.713 1.59-9.049.164-6.104-.37-1.124-4.552-8.802-5.767-8.552-.66-.748zm-4.564 20.05l-.854 2.165-.023.061-.049.08-4.395 7.512-.044.076-.014.018-5.07 6.791 1.78 2.994.04.074 3.347 6.93.021.039 3.09 7.153.021.059 2.444 6.823.97-1.12 5.641-8.141 4.298-8.507.34-.993-.45-1.312-2.697-6.401-5.19-9.682-3.206-4.619zm-11.83 18.281l-5.564 5.804-.059.059-4.979 4.38-.056.043-5.378 4.101-.042.031-.79.538 1.39 3.005.013.032.02.058 5.327 15.274.016.049.011.045 1.93 7.88 6.517-4.749 7.978-7.363 4.234-4.894-.294-1.038-2.462-6.878-3.079-7.128h.001l-3.308-6.847-1.426-2.402zm-18.54 16.095l-3.205 2.184-.044.031-.045.023-6.362 3.431-.032.016-9.739 4.822-.046.023-.043.016-2.709 1.024 3.147 11.385.02.075 3.08 15.703.006.066.066.508 2.686-1.046 10.941-5.215 10.09-5.972.826-.601-2.114-8.635-5.289-15.169-1.234-2.669zm-24.098 12.278l-2.41.911-.026.007-7.153 2.486-.078.024-11.342 2.966-.05.011-1.787.368h21.637a3.998 3.998 0 013.996 3.998v4.387a3.999 3.999 0 01-3.998 3.998h-2.249c-.58 0-.97.471-1.239 1.172-.645 1.685-.805 4.2-.805 6.744h-.015v4.813l4.797-1.383 7.002-2.728-.12-.937-3.076-15.681-3.084-11.156zm-55.568 19.452v19.777l3.49.039 6.67-.374v-11.822c0-2.565-.159-5.089-.795-6.744-.267-.701-.663-1.172-1.257-1.172h-2.53c-.825 0-1.59-.25-2.227-.678-.49.327-1.064.55-1.688.631-.587.076-1.139.191-1.663.343zm-31.109-.124l-.552 4.153h.002l-.558 6.334.361-.502.075-.104c.687-.916 1.488-2.194 2.055-3.722.383-1.033.642-2.169.642-3.346.001-.902-.314-1.618-.807-2.099a3.065 3.065 0 00-1.218-.714zm14.493 19.194l6.961.598v.001l7.656.085v-18.931c-2.966 1.624-5.155 4.782-8.375 9.428l-.832 1.197-.088.131-5.322 7.491zm-18.092-31.719l-1.952-.398-.055-.011-11.22-2.966-.079-.024-9.49-3.373-1.813 6.742h14.694a3.998 3.998 0 013.997 3.998l.001 4.387a3.999 3.999 0 01-3.998 3.998h-.329c.15.368.38.764.605 1.15l.223.386-.004.002 8.284 14.159 1.341-1.862.853-9.682.01-.043.543-4.11h-1.125a4 4 0 01-3.999-3.998l.001-4.387a3.998 3.998 0 013.512-3.968zm-24.669-7.498l-9.5-4.174-.066-.031-6.306-3.331-.058-.034-5.995-3.697-.066-.046-.26-.192-1.155 2.586-5.256 15.141-.315 1.246h26.97l2.007-7.468zm-23.892-12.715l-6.327-4.67-.047-.034-.023-.02-4.939-4.38-.034-.031-4.428-4.289-.048-.047-.038-.048-1.004-1.257-1.302 2.195-3.444 6.916v-.001l-2.966 7.046h.001l-2.477 6.924-.374 1.338 6.92 7.203 4.038 3.338h1.367c.99 0 1.895.36 2.594.957a3.98 3.98 0 012.594-.957h2.794l.437-1.735.028-.082 5.303-15.274.032-.082 1.343-3.01zm-18.218-16.444l-3.484-4.363-.036-.047-.03-.047-4.72-7.548-.032-.05-.035-.079-2.118-4.828-1.162 1.653-3.95 6.261-4.794 9.75-1.56 4.382 1.537 3.807 4.79 8.671L88 201.956l.016-.055 2.48-6.93.023-.051 3.01-7.153.023-.058 3.452-6.931.036-.062 1.718-2.897zm-11.39-19.097l-.4-.91-.025-.059-.018-.058-2.38-8.072-.022-.071-.01-.069-.784-5.398-.006-.039-.003-.075-.088-2.849-.504.577-5.793 8.57-4.536 8.802-.572 1.737.636 8.53 2.111 8.949.738 1.829.821-2.304.016-.045.03-.061 4.85-9.865.028-.055.022-.038 3.995-6.331.028-.043 1.865-2.652zm-3.756-20.602l.267-5.205.004-.061.004-.033.817-5.482.01-.061.016-.064 1.363-4.86-2.956 3.558-3.317 5.152-3.583 7.649-.002-.001-1.255 3.603-1.516 6.066-.952 5.939-.043 1.039 3.125-6.066.032-.061.027-.041 5.843-8.644.023-.034.054-.063 2.04-2.33zm244.424 27.648l-.018.671-.003.096-.01.053-1.608 9.173-.01.07-.029.078-2.426 7.118 1.54 4.494.015.043.013.058 1.521 6.621.016.075.972 6.405.008.043.001.089.014.84.845-2.566 1.654-9.247.411-6.168-.41-6.248-1.655-9.152-.84-2.546zm-5.244 20.093l-3.852 7.624-.027.054-.044.063-5.72 8.252-.033.049-.034.037-1.852 2.142 1.364 4.836.02.082 1.308 6.779.008.032.004.062.955 10.017.006.047v.051l-.006.519.626-.704 5.75-8.553 4.56-8.852.312-.952-.108-6.47-.963-6.333-1.498-6.517-.776-2.265zm-13.126 20.029l-3.417 3.95-.04.05-.037.032-8.04 7.421-.028.026-.063.045-7.24 5.275 1.147 4.692.016.065.004.021 1.055 6.995.004.042.741 6.8.003.082.13 4.758.077-.05 9.08-7.189 5.34-5.113 4.482-5.032.023-2.728-.946-9.909-1.293-6.701-.998-3.532zm-20.607 18.068l-.223.162-.057.042-.022.012-10.16 6.014-.05.03-.029.013-10.972 5.23-.07.028-3.21 1.25 1.541 12.026.006.074.613 11.96 6.462-2.701 11.075-5.59 7.978-5.11-.158-5.906-.734-6.735h-.002l-1.052-6.972-.936-3.827zm-26.706 13.526l-6.567 2.557-.02.009-.067.019-5.405 1.559v24.748l10.802-3.348 3.375-1.411-.648-12.657-1.47-11.476zm-51.949 11.08l-6.569.368h-.064l-3.526-.039v24.692l10.16-.339v-24.682zm-12.158.306l-7.745-.086h-.075l-8.14-.7-8.004 11.265 7.874 13.43 3.406.381 12.684.425V248.87zm-89.598-21.568l-.127.503-1.069 6.93-.52 6.748-.312 5.939 1.12.814 10.29 6.208 7.506 3.648 2.885 1.208-14.949-25.409-.114-.189a32.431 32.431 0 01-.826-1.588c-.81-1.636-1.905-3.837-3.884-4.812zM97.35 214.446l-2.207-1.824-.028-.023-.054-.056-6.154-6.407-.91 3.266-.99 5.044H97.35zm-5.609 20.902l6.524 6.008 6.431 4.67.245-4.668v-.023l.526-6.799.007-.079 1.078-6.994.006-.037.013-.052.142-.559a3.984 3.984 0 01-2.278-.951 3.956 3.956 0 01-2.069.918c-4.583.599-7.05 3.482-10.625 8.566zm-4.42-30.949l-5.803-7.889-.037-.05-.033-.06-4.85-8.777-.024-.047-.027-.062-.719-1.781-.85 2.389-1.503 6.521-.963 6.339-.175 6.539.294.871 3.092 6.054h9.25l1.07-5.449.02-.075 1.257-4.523zm-12.617-21.454l-1.612-3.995-.03-.076-.018-.067-2.143-9.087-.017-.072-.007-.081-.283-3.807-.84 2.549-1.742 9.174-.37 6.291-.07-.004.7 9.315 2.221 8.902.03-1.139.002-.087.006-.038.973-6.405.015-.075 1.525-6.621.014-.054.018-.055 1.628-4.568zm238.153 48.843l-2.982 3.347-.055.055-5.402 5.172-.022.02-.053.042-9.193 7.278-.058.048-.02.011-1.139.73-.162 5.662v.047l-.008.051-.74 5.716-.007.059-1.057 5.608-.015.082-.016.048-.116.351c.212.023.424.049.635.076l1.385-.956 5.688-4.669 5.288-5.051 4.474-4.88 1.394-3.815 1.282-5.643.872-5.941.027-3.448zm-20.955 18.004L285 254.213l-.04.027-.05.024-11.163 5.635-.066.03-7.196 3.01-.172 2.922h20.545c.962 0 1.934.025 2.907.083l.252-.759 1.04-5.521.726-5.611.12-4.261zm-27.467 14.003l-2.602 1.088-.028.013-.062.018-11.45 3.548v18.185l.78-.225 7.96-2.535 2.88-1.199v-5.351c0-.531-.016-1.044-.058-1.477a3.999 3.999 0 01-3.742-3.99v-2.011a3.999 3.999 0 013.998-3.998h2.203l.121-2.066zm-54.03 11.443l-10.16.34v18.357l7.91-.098 2.25-.206v-18.393zm-12.159.34l-12.806-.429-.078-.005-1.947-.217 11.116 18.961 3.715.047v-18.357zm-63.778-6.001l.106 1.979.576-.821-.682-1.158zm-4.357-7.406l-5.35-2.242-.052-.023-7.6-3.694-.057-.026-.027-.017-10.32-6.227.227 4.129.515 5.613 1.062 5.523 1.107 3.3 4.643 3.204 6.76 3.808 7.105 3.601.893.37 3.705-5.288-.45-8.359-2.16-3.672zm-25.487-13.731l-7.57-5.496-.04-.029-.05-.046L90.59 237l-.268.385-.822 1.187-.09.132-2.425 3.412 1.003 4.733 1.413 3.922 4.398 4.753.001-.001 5.183 5.024 5.898 4.692 2 1.381-.285-.853-.025-.072-.01-.057-1.079-5.608-.006-.029-.006-.069-.524-5.716-.005-.035-.317-5.741zm157.288 41.827l-1.113 2.727-.036.089-.059.087-1.216 1.838.17-.067 2.254-1.023v-3.651zm-.194-5.336l-1.929.802-.08.028-8.035 2.558-.028.008-1.353.391v9.335h.016v.351l2.41-.751 3.217-1.257 1-1.149 2.047-3.092 1.542-3.774h.002l1.191-3.45zm-51.314 10.699l-2.108.194-.077.004-7.974.098v6.304c.516.505 1.06.982 1.624 1.419 1.628 1.26 3.376 2.149 5.023 2.323h1.462c.594 0 .988-.473 1.256-1.174.636-1.656.793-4.18.793-6.745l.001-2.423zm-12.158.296l-2.539-.032.765 1.305c.073.106.137.217.198.332.44.812.971 1.633 1.576 2.431v-4.036zm-53.169-8.204l-.013-.004-4.316 6.127.906 1.401 1.001 1.185 2.99 1.224 6.515 2.019-7.083-11.952zm-17.23-6.561l-.528-.218-.07-.031-7.162-3.63-.039-.02-6.787-3.823-.02-.012-.058-.039-2.308-1.593 1.25 2.921 2.463 4.068 2.714 3.674 1.214 1.233 4.415 3.031.726.419 4.19-5.98z" fill="#c8dff5"/>
  <path d="M118.74 118.768l-.113-1.387-.68.425.196-.86-3.279-.351-1.229 2.615-2.512.089-1.007 1.185 2.617 3.258 3.618-2.794 2.39-2.18zm49.65 118.219l.028-.041-.029.04zm-47.37 38.532l.003.003-.004-.002zm92.237-134.565v-.005.005zm-82.674 30.334v.002-.002zm135.882-64.585l-.3 3.394-.013.077-.505 2.979-.017.092-.023.068-1.16 3.379 3.003 1.773.047.03 11.045 7.413.068.048 10.176 8.099.06.05.45.42 1.35-3.941 1.14-6.561.21-3.852-8.026-5.2-11.099-5.638-6.406-2.63zm-2.744 11.878l-1.999 4.004-.022.043-.057.082-2.049 2.927-.035.05-1.62 2.04 9.292 8.515.035.03 6.391 6.445.032.03 6.01 6.622.04.047.702.87.904-1.01 3.934-6.107 3.18-6.203.128-.374-1.072-1-10.126-8.059-10.962-7.355-2.706-1.597zm-7.023 10.708l-.49.618-.033.04-.045.046-3.889 3.854-.044.043-.05.039-4.592 3.545 10.203 13.78.034.05 7.964 12.289.401-.258 4.32-3.135 5.846-5.307 2.772-3.1-.88-1.092-6.002-6.61-6.359-6.412.001-.002-9.157-8.388zm-10.81 9.283l-3.53 2.294-.032.022-.05.025-5.489 2.864-.069.038-.018.006-3.142 1.28 3.567 6.954.022.05 7.272 16.372.021.039 2.134 5.473 4.667-2.067 7.77-3.981 5.071-3.268-7.942-12.253-10.252-13.848zm-14.182 7.284l-.932.38-.082.027-6.389 1.979-.05.016-.04.008-6.76 1.43 1.894 7.725.008.027 4.673 21.766.007.035.208 1.167 3.688-.681 9.107-2.47v.002l7.67-2.573-2.128-5.453.002-.001-7.234-16.284-3.642-7.1zm-16.204 4.253l-2.232.472-.046.01-.05.005-6.893.759-.085.004-5.95.14v31.194l8.768-.225 9.67-1.025 3.596-.665-.208-1.171-4.67-21.746h.001l-1.9-7.752zm-17.256 1.39l-5.813-.14-.064-.001-.022-.003-6.722-.76-.046-.004-.048-.01-2.322-.483-1.9 7.768-3.799 17.32h-.002l-1.11 5.617 3.647.643 9.575 1.023 8.626.224v-31.194zm-33.265-6.5l-1.076-.373-.075-.026-.035-.017-5.67-2.76-.068-.04-5.207-3.048-.07-.043-.03-.02-2.33 2.814-10.57 14.575-5.303 8.714.296.213 4.668 2.936 7.78 3.998 4.737 1.919 2.077-5.325.02-.047 9.29-20.488.028-.055 1.538-2.926zm81.333-9.083l4.564-3.526 3.802-3.765.493-.621-13.685-10.588-7.503-5.224h.001l-4.845-3.145-.588.763-.07.09-.086.07-3.362 2.758 9.968 10.105.043.047 11.268 13.036zm-79.928-69.057l-1.787.586-5.533 2.765-3.615 2.202.053.01 5.89 1.185.072.016.02.004 6.055 1.804.075.026 7.513 2.895 4.64-2.654.074-.042.076-.03.452-.165-1.959-1.618-6.407-4.215-5.619-2.77zm127.538 54.56l-.153 2.778-.003.065-.009.048-1.16 6.687-.013.078-.026.074-1.666 4.865 4.145 3.862.035.036 5.664 5.808.05.053 7.764 9.262.011.014.042.06 1.17 1.686 1.484-4.968 1.571-7.996.044-5.101-4.467-5.072-8.24-7.566-6.198-4.642-.045-.03zm-13.563 31.943l-2.606 2.913-.05.056-.019.018-5.914 5.37-.047.042-.038.028-4.367 3.169-.048.03-.43.279.658 1.018.043.074 8.303 15.496.027.05 4.861 10.516.5-.341 5.305-4.044 4.954-4.357 5.9-6.156-1.66-2.796-4.407-7.071-4.922-6.81-6.043-7.484zm-15.194 12.984l-5.1 3.288-.022.015-.065.032-7.886 4.04-.05.028-4.743 2.102 3.594 9.213.02.058 5.378 16.81.012.04.846 3.061 2.497-.942 9.665-4.786 6.314-3.404 3.435-2.341-4.998-10.814-8.254-15.406-.643-.994zm-19.734 10.206l-7.819 2.622-.053.02-9.106 2.469-.082.016-3.78.698 2.557 14.345v.02l2.554 16.34 4.627-.951 11.28-2.95 7.086-2.463 2.583-.976-.894-3.228-5.35-16.731-3.603-9.231zm-22.803 6.188l-3.632.67-.078.013-9.727 1.03-.078.005-8.87.228v29.76h1.147c.82 0 1.58.248 2.215.67a3.986 3.986 0 012.215-.67h15.206l5.735-.757.991-.204-2.568-16.42h-.003l-2.553-14.325zm-24.384 1.946l-8.732-.228-.08-.004-9.654-1.031-.068-.008-3.7-.653-1.95 9.868-3.122 20.91.73.149 5.732.758h20.844v-29.761zm100.205-5.385l-5.564 5.804-.059.059-4.979 4.379-.056.044-5.378 4.1-.042.03-.79.539 1.39 3.005.013.032.02.058 5.327 15.275.016.049.011.045 1.93 7.879 6.517-4.75 7.978-7.362 4.234-4.893-.294-1.04-2.462-6.877-3.079-7.128h.001l-3.308-6.846-1.426-2.402zm-18.54 16.094l-3.205 2.184-.044.031-.045.024-6.362 3.43-.032.016-9.739 4.822-.046.023-.043.017-2.709 1.023 3.147 11.386.02.075 3.08 15.702.006.066.066.509 2.686-1.047 10.941-5.215 10.09-5.971.826-.602-2.114-8.635-5.289-15.168-1.234-2.67zm-24.098 12.278l-2.41.912-.026.007-7.153 2.486-.078.024-11.342 2.965-.05.012-1.787.368h21.637a3.997 3.997 0 013.996 3.998v4.386a3.998 3.998 0 01-3.998 3.998h-2.249c-.58 0-.97.472-1.239 1.173-.645 1.685-.805 4.199-.805 6.744h-.015v4.813l4.797-1.384 7.002-2.728-.12-.938-3.076-15.68-3.084-11.156zm-147.165 19.629l-.127.503-1.069 6.93-.52 6.748-.312 5.94 1.12.813 10.29 6.208 7.506 3.648 2.885 1.208-14.949-25.41-.114-.188a31.983 31.983 0 01-.826-1.588c-.81-1.635-1.905-3.837-3.884-4.812zM97.35 214.447l-2.207-1.825-.028-.023-.054-.055-6.154-6.408-.91 3.267-.99 5.044H97.35zm-5.609 20.9l6.524 6.008 6.431 4.672.245-4.67v-.022l.526-6.8.007-.077 1.078-6.994.006-.037.013-.053.142-.56a3.99 3.99 0 01-2.278-.95 3.963 3.963 0 01-2.069.918c-4.583.6-7.05 3.483-10.625 8.566zm-4.42-30.947l-5.803-7.89-.037-.05-.033-.06-4.85-8.778-.024-.046-.027-.061-.719-1.782-.85 2.389-1.503 6.522-.963 6.338-.175 6.54.294.87 3.092 6.055h9.25l1.07-5.45.02-.075 1.257-4.522zm-12.617-21.454l-1.612-3.995-.03-.077-.018-.067-2.143-9.087-.017-.071-.007-.082-.283-3.806-.84 2.549-1.742 9.174-.37 6.29-.07-.004.7 9.316 2.221 8.9.03-1.138.002-.087.006-.037.973-6.405.015-.075 1.525-6.622.014-.053.018-.056 1.628-4.567zm55.407 79.225l-5.35-2.241-.052-.024-7.6-3.694-.057-.026-.027-.017-10.32-6.227.227 4.129.515 5.613 1.062 5.522 1.107 3.3 4.643 3.206 6.76 3.808 7.105 3.6.893.37 3.705-5.288-.45-8.358-2.16-3.673zm-25.487-13.73l-7.57-5.497-.04-.028-.05-.046L90.59 237l-.268.385-.822 1.188-.09.132-2.425 3.41 1.003 4.734 1.413 3.923 4.398 4.753.001-.002 5.183 5.025 5.898 4.69 2 1.382-.285-.853-.025-.072-.01-.056-1.079-5.61-.006-.028-.006-.07-.524-5.715-.005-.035-.317-5.74zm23.222 32.72l-.527-.217-.07-.031-7.162-3.63-.039-.02-6.787-3.823-.02-.012-.058-.04-2.308-1.593 1.25 2.92 2.463 4.069 2.714 3.673 1.214 1.235 4.415 3.03.726.418 4.19-5.98zm190.184-62.658l1.33.145-.075 1.546-2.836 4.22-.224.075-1.147-1.81 2.952-4.176zm-19.598 49.127l.897-.265.612.142-.494.549a18.217 18.217 0 00-1.015-.425zm-46.264 5.925l-1.138 3.24.884 2.762 1.306 1.243h1.565l2.353-2.252-.179-1.84-4.737-3.306-.054.153zm-136.75-139.572l2.626-1.878-.403-1.98-3.387 2.877 1.164.98zm3.456-7.274l2.886-6.31 3.69-1.077-.789-2.727 2.782-.553-1.907-1.512-7.127 6.419 1.375 1.474-2.905 3.054-2.043-1.011-2.224 1.106.033 3.077-3.764-.174 3.826 3.223 3.737-3.173.046-.04 2.384-1.776zm18.28 17.373l3.357-1.915-.154 1.116 1.6-1.718 2.361-3.053 1.136.15.46 2.903 1.775-1.975.81-1.078-.886-.637 1.132-1.976.09.006 2.28 1.61-2.25 2.717-.039.05-10.61 14.63-.044.067-5.25 8.63-4.76-3.415-5.747-5.281-2.858-3.181.871-1.054 5.867-6.595 3.96-3.993.04.976 5.631.759 1.136 2.18.091.077zm18.523-5.998l1.36.08-1.39-1.831.722-.953-.788-.13 6.383-7.707 11.06-11.467.358.168 3.882 6.616-1.535 2.59-1.71 1.358.307 1.01-2.698 4.553-.024.043-5.685 10.803-1.283-.446-5.638-2.743-3.32-1.944zm-2.347-3.244l-3.469-.651-.59-.417.638-.92-1.059-1.651 4.47-4.942 6.372-2.141.496-3.055-2.226-.664-2.51 2.755-6.777 1.489-3.195 4.092-.149 1.32-.193-.183-1.722-1.912 2.602-2.25 14.714-10.951 4.785-3.071 1.018.497 4.961-.785.25 3.129-11.264 11.679-.052.054-7.1 8.578zm-8.865-2.858l-.362.373-2.977.585-4.925 4.382-1.593-1.036-1.467 1.277-.179-.174 6.288-5.83 2.655-2.294 1.774 1.969.054.055.732.693zm-11.304 2.504l4.173-7.065.86-2.178-1.646 1.449-4.087-.255.01-3.085 3.236-3.218 1.281 2.467.018.033.038.057 2.901 4.382.044.065.047.05.535.596-2.65 2.292-.03.024-4.73 4.386zm4.03-15.828l1.99-1.977 6.14.985 12.672-5.254 5.087-1.53-3.445 2.21-.055.039-14.775 10.998-.058.047-2.665 2.303-.515-.573-2.822-4.26-1.554-2.988zm39.04 9.859l2.958.47 2.308-6.211 3.09 2.84 3.375-1.241-3.406 11.835-.009.037-2.816 11.507-6.888-1.43-7.018-2.445 5.531-10.514 2.874-4.849zm14.053-4.996l.837-.307.753 1.828 6.372-3.646v28.11l-5.702-.135-6.653-.754-2.208-.458 2.792-11.404h.001l3.808-13.234zm9.961-1.675l5.743 3.173.697-1.743-1.28-3.131 1.043-.094.098-.008.028-.007.787-.172.325 1.102.508 1.82-.54 5.913 2.43.867 3.172 11.383 1.771 7.22-2.117.448-6.823.752-5.842.139v-27.662zm4.37-3.628l-.342-.836 2.151-4.267 2.596.226-.26 3.254-.086.938-2.493.544-1.566.14zm7.005 9.438l1.26-2.002-1.289-6.713.716-.157.054-.011.058-.021 3.44-1.181.701 1.093 8.748 14.722 5.483 10.687-.75.305-6.274 1.943-6.79 1.436-1.79-7.303-.009-.032-3.558-12.766zm.645-10.962l1.65-3.03 2.28 1.68-3.93 1.35zm5.832.053l1.678 1.237-.375-1.917 4.044-2.112 10.12 10.256 11.065 12.802-3.325 2.16-5.369 2.803-3.293 1.342-5.59-10.892-.027-.055-8.759-14.742-.019-.03-.447-.696.07-.037.227-.12zm.856-2.693l-3.664-3.931 4.257-1.81-1.585-1.472 3.43-4.55 4.195-3.346-.378-2.905 7.34-.212.027.19-.735 4.584-1.598 3.758-3.197 4.143-4.455 3.653-3.637 1.898zm15.428-16.72l.392.647-.398 3.962-.802-.322.147-.344.046-.106.02-.13.595-3.706zm-.214 6.675l-.177 1.756.99-1.43 7.571 3.047 12.315 5.97 7.13 4.21-2.043 4.09-1.955 2.795-1.586 1.997-13.746-10.635-.039-.031-7.503-5.224-.027-.016-4.735-3.074 1.537-1.992.081-.104.05-.114.764-1.798 1.373.553zm1.977-1.355l2.736-3.95.907-.25 8.736 2.109 12.604 3.948 3.402 1.397-.354 4-.48 2.825-1.004 2.923-6.839-4.037-.075-.04-12.39-6.008-.063-.028-7.18-2.89zm7.094-5.416l-.712-2.388 4.57-1.774 3.642-.553.517-.29 11.282 1.948 1.157 3.386.487 2.963.293 3.202-2.646-1.086-.082-.031-12.64-3.96-.063-.016-5.805-1.401zm10.78-6.552l.657-.37-.13-1.474-3.414-2.005 2.722-3.643 2.305.16.865.98 2.936 4.305L261.637 92l-7.62-1.315zm4.242-9.185l.457-.118-.21-4.007 4.542-1.144-.798-1.936 3.01.88.89.573 6.325 4.99 4.63 4.482-3.863-1.196-.08-.025-6.392-1.394-.066-.01-6.517-.958-.08-.008-1.848-.13zm2.063-11.887l-.01-.022a132.921 132.921 0 018.1 4.429l-2.303-.672-5.787-3.735zm15.527 9.16a131.79 131.79 0 0112.272 9.544l.285.234h.013a98.033 98.033 0 002.124 1.878l.114 1.048-.415-.288-.038-.026-.044-.025-5.116-2.855-.052-.03-.052-.02-3.974-1.644-1.39-1.737-.052-.064-.03-.03-5.677-5.495-.046-.046-.03-.025-1.833-1.444.712.34 2.633 1.644.596-.96zm13.125 13.983l-1.126.468-.359 2.719-.47-.91-.044-.073-2.554-4.048-.018-.03-.049-.06-.809-1.01.584.24 4.845 2.704zm-1.94 6.644l-.12.913.065.137-8.597-3.723-.082-.031-7.159-2.385-.064-.02-7.017-1.817-.069-.207-.025-.077-.026-.047-2.219-4.446-.025-.051-.046-.067-2.752-4.034 1.031.072 6.438.945 6.357 1.388 5.9 1.826 1.114.462 3.014 3.765 2.51 3.977 1.772 3.42zm1.293 3.884l1.735 3.648.58 1.73 1.142 6.604.14 2.483-6.92-4.483-.053-.033-.044-.022-11.162-5.672-.07-.031-7.125-2.925-.39-4.282-.009-.07-.505-3.073-.016-.088-.024-.072-.774-2.266 5.734 1.485 7.063 2.353 10.07 4.36.628.354zm5.336 11.14l4.17-1.924v-1.917l1.915-.295 5.098 3.898 4.33 4.194.504 1.255 2.28 7.94.941 8.106v.056l-3.024-3.431-.026-.031-.048-.043-8.31-7.633-.028-.024-.052-.04-6.282-4.705-.056-.04-1.08-.698-.225-4.001-.003-.064-.009-.05-.095-.553zm19.878 9.147l4.816 10.822-.053 3.77-2.822.41.036.138-.646-.735.021-2.36.001-.08-.006-.04-.955-8.234-.01-.087-.02-.072-1.359-4.733.997 1.2zm3.573 20.532l.981 2.309-.337 5.142 1.095 1.458h2.221l2.291 1.305 2.46 4.754.37 1.124-.077 2.83-.732 1.559-5.182-7.437-2.559 1.916-1.774-4.116-2.07.662-1.362 5.026-1.28-1.844.4-1.014.028-.08 1.597-5.345.013-.044.01-.05 1.595-8.124.017-.076v-.106l.025-2.984.661.749 1.61 2.386zm-8.7 14.225l-.946 4.28-4.182 7.145-4.559 6.109-1.29-2.17-.01-.02-4.412-7.078-.039-.055-4.98-6.89-.03-.042-6.26-7.752 1.184-1.322.062-.07.035-.055 3.985-6.185.014-.022.032-.064 3.126-6.096 3.525 3.285 5.597 5.74 7.742 9.235 1.406 2.027zm-.9 8.144l3.862 1.969 1.58-3.57.53.766 1.41 2.63-.444.869.695 4.16 2.268-.238.067.035 1.194 2.226 2.696 6.4.451 1.313-.34.993-4.298 8.507-5.642 8.14-.969 1.122-2.444-6.824-.022-.06-3.089-7.152-.02-.04-3.348-6.93-.04-.073-1.78-2.993 5.07-6.792.014-.018.044-.075 2.554-4.365zm7.267-2.462l1.166-.527.582 1.587-.53 1.039-.784-1.462-.028-.052-.032-.045-.374-.54zm5.8 10.702l3.188 1.666.218.303-1.152 3.38-2.254-5.35zm4.832 3.966l1.09 1.526 1.304 4.709-.888 6.01 1.363 2.777-.808 3.502-.438-2.884-.016-.075-1.52-6.622-.014-.058-.015-.043-1.54-4.494 1.482-4.348zm.655 24.62l-.045.192-4.983 4.559-.276 2.99-4.175 4.816.45 2.818-2.17-2.442-.838.665-.098-1.024-.004-.062-.008-.032-1.308-6.778-.02-.082-1.364-4.836 1.852-2.143.034-.036.033-.05 5.72-8.252.044-.063.027-.054 3.852-7.623.776 2.265 1.498 6.517.963 6.332.04 2.323zm-13.896 15.073l-.494.39-2.045 3.745-.627 4.84 3.715 1.59-4.325 4.856-5.34 5.113-8.244 6.526-.973-1.504-.069-2.542-.003-.082-.74-6.8-.005-.042-1.055-6.994-.004-.021-.016-.065-1.148-4.692 7.241-5.275.063-.046.027-.026 8.041-7.42.036-.033.041-.05 3.417-3.95.998 3.533 1.293 6.7.216 2.25zm2.691 11.483l3.857 1.653 1.228 2.732-1.182 2.547-3.185 5.52-2.628 3.486.961-4.23.015-.073.882-6.013.008-.05v-.092l.044-5.48zm.8 15.662c-.512.902-1.034 1.798-1.565 2.687l-.445-.022 2.01-2.665zm-5.636 3.077l-1.617-1.203-7.492-.75 1.922 9.723.473.579-3.554 3.395-.026-.008-.277-4.49-1.883-6.138-1.675-2.591 8.444-6.686.053-.042.022-.02 5.402-5.172.055-.055 2.982-3.347-.027 3.447-.872 5.94-1.282 5.644-.648 1.774zm-5.448 9.899l.411.504-1.529 2.322-1.44-.382 2.558-2.445zm-12.779-16.294l-1.73-.615-2.33 5.258-2.663.633-1.343-5.542-6.825-4.098-3.032-3.686h-2.094l-3.608 4.819-3.427 1.549-.484-3.777 3.21-1.251.071-.028 10.972-5.23.028-.013.051-.03 10.16-6.013.022-.013.057-.042.223-.162.936 3.828 1.052 6.972h.002l.734 6.734.018.707zm-28.71 1.043l-.406 1.91-2.989 2.506-5.862 8.644-3.54 2.3v-16.973l5.405-1.56.067-.018.02-.01 6.567-2.557.738 5.758zm-12.798 27.9l.081.957-.08.095v-1.051zm-39.889-30.167l-.803-.696-9.356.556v-13.71a11.291 11.291 0 011.663-.343 3.959 3.959 0 001.688-.631 3.977 3.977 0 002.227.678h2.531c.594 0 .988.472 1.256 1.173.636 1.654.793 4.178.793 6.744l.001 6.229zm-12.158-.022l-.97.058-8.888-1.514.563-.792.088-.131.833-1.198c3.22-4.646 5.408-7.804 8.374-9.428v13.005zm-27.127-10.301l-2.08-2.927.097-.723c.47.149.888.392 1.218.714.494.48.807 1.197.807 2.098.001.282-.014.562-.042.838zm-6.598-4.115l.34 2.593 1.614 3.213-.733 8.32-1.34 1.864-8.285-14.16.004-.002-.223-.385c-.225-.387-.456-.782-.606-1.151h.33a3.997 3.997 0 003.997-3.998l.001-4.386a3.998 3.998 0 00-3.998-3.998h-14.694l1.813-6.742 9.49 3.373.08.024 11.22 2.965.054.012 1.952.397a4 4 0 00-3.513 3.969l.001 4.386a3.999 3.999 0 002.496 3.706zm3.661 9.204l.455.907-.173.235-.075.104-.36.502.153-1.748zm17.897 7.005l5.486 4.059-.975-.011v-.001l-6.96-.599 2.45-3.448zm6.168 6.058l-4.28 7.264-7.053 4.59-5.02.266-.42.458-1.192-2.033 8.004-11.264 8.14.698h.075l1.746.02zm-80.356-34.357l.315-1.247 4.195-12.084 1.932 2.816 16.773 9.078 2.61-3.733 2.311-2.67.841.37-2.008 7.47h-26.969zm22.683 57.109l-.106-1.98.682 1.159-.576.82zm14.641 23.15l-3.277 3.04-.294-.09-2.989-1.225-1-1.185-.907-1.401 4.316-6.126.013.004 4.138 6.983zm-5.317 5.904a133.989 133.989 0 01-5.936-2.827c.192-.3.393-.592.598-.876l2.883 1.18.973 1.153.037.044.048.045 1.397 1.281zm-38.43-25.96a130.989 130.989 0 01-8.925-9.545l.905-.698-2.176-2.813-2.968-4.624-.144-.29.216.234.035.039 5.223 5.064.042.04.032.026 5.942 4.724.055.04 4.234 2.923.351 1.043.027.076 2.004 4.68.032.07.031.053 2.107 3.483-6.245-5.427-.779.903zm-15.676-18.254a127.837 127.837 0 01-6.16-9.561l.175-.245 3.747 5.109.018.024.057.062.033.035.357.99.025.069.018.037 1.73 3.48zm-16.99-41.95l-.245-1.821.93 1.822h-.686zm12.611 29.882l.322 1.518-.71-.97.388-.548zm-15.035-29.881a124.562 124.562 0 01-3.057-16.93l1.304 5.222.024.078 1.688 5.006-.07 2.62-.002.08.01.076.516 3.848h-.413zm-3.814-30.731v-.005l.037.002-.037.003zm.704-13.002c.287-2.695.656-5.367 1.098-8.013l1.773-1.937-2.298 6.966-.014.048-.017.082-.542 2.853zm5.33-11.034l.01-.002 3.395 1.276 3.691-4.4 3.408.745 2.628-2.036 1.092 4.233-1.32 1.879-.028.042-3.995 6.33-.022.038-.028.056-4.85 9.865-.03.062-.016.045-.82 2.304-.739-1.83-2.11-8.95-.637-8.528.371-1.13zm14.88 2.352l.067.263 1.641.573 1.235 2.817.035.079.031.05 4.72 7.548.031.047.036.047 3.484 4.364-1.718 2.896-.036.063-3.452 6.93-.023.058-3.01 7.153-.023.05-2.48 6.932-.016.055-4.836-6.576-4.79-8.67-1.538-3.808 1.561-4.382 4.794-9.75 3.95-6.261.336-.478zm4.277 1.732l.358.125 8.032 8.823 1.44.398-.358.548-.023.035-1.36 2.292-2.97-3.722-4.66-7.452-.459-1.047zm10.907 11.38l.123.242-.486.373.363-.614zm-2.283 4.708l-.688.304.397-.67.291.366zm-2.08 2.81l.511 2.078 4.357 6.497-.132 3.103 3.877 6.25 1.814.257 1.322-3.315 4.121.33.834 1.216-4.705 13.552-.028.082-.437 1.735h-2.794c-.99 0-1.895.36-2.594.956a3.982 3.982 0 00-2.595-.956h-1.366l-4.038-3.338-6.92-7.204.374-1.338 2.477-6.924 2.964-7.045h.001l2.956-5.936zm42.571 22.14l.445-1.837.87-2.666-6.414-.2-3.456-3.633-1.87 1.212-3.894-3.424.813-3.854-1.205-1.43 1.714-4.32 6.457 1.279-.608-1.867 3.008 2.094 4.211-1.012 3.466 1.012 1.606 3.186.23.097-4.014 12.494-.016.047-.82 3.05-.523-.228zm7.218-14.591l5.023 2.102 2.661-1.168h.1l.366-3.25-1.688-2.317-3.215-4.47 1.168-2.995 1.193-.406-.523-1.248 1.762.713.077.027 9.015 2.827.064.017 9.217 2.238.061.014.677.12-1.948 9.856-.009.046-3.107 20.825-4.958-1.008-11.166-2.95-9.598-3.412.881-3.277 3.947-12.284zm1.857-11.034l-.112-.157.2-.069-.088.226zm5.398-3.994l.475-.144-.978-.06-.963-.39 2.08-5.327 9.265-20.434 1.665-3.164 7.373 2.566.073.025.052.01 6.872 1.428-1.893 7.727-.008.024-3.8 17.32-.003.02-1.12 5.672-.719-.127-9.102-2.21-8.956-2.81-.313-.126zm-5.832-.207l-1.446.613-2.15-1.038 1.422 3.212 2.73.615-.619.954-1.554-.843-3.27 1.042-1.349-3.62 2.378-.936-2.587-1.74.381-1.046 2.982 1.533.054.028.028.01 3 1.216zm-6.82-3.176l-2.18.047-1.878 1.978-3.184 3.389-3.165 2.178.218 2.005.597 3.017-2.265-1.168-3.139 1.145.51-1.783-2.206-1.91-1.13 1.732-.07-.078 5.784-11.064 2.922-4.801.174.126.052.03 4.762 2.995.074.043 4.123 2.119zm-19.317 8.978l-.67-.743-1.933 3.679.497 1.094-.449.856-.026.055-.059.13-.27-.598-2.188-1.362-.133-4.233-.474-2.904 1.771-3.282-.68-2.036-1.499-5.2.607-5.102-1.35-.114.671-1.914-1.714-1.026-1.597 2.902-.057 7.17 2.41 8.602-2.139-2.24-.967 3.455-2.88 1.273 2.168-5.543-2.44-9.748 4.9-6.56 3.396-4.103 2.691 2.993.03.03.036.036 5.84 5.369.058.053.037.026 4.918 3.528-3 4.93-.03.059-5.475 10.468zm-1.236 6.815l-.277.742-.027-.062.304-.68zm-11.065-28.455l.05-.188-.879-2.615-2.102-.11-2.325-.09-2.669-3.515-1.156 1.575-.958.99-6.39.667-.64 2.117-4.135.955-.092-.162 1.753-2.494 7.633-9.175 8.747-8.702.514-.436 3.154 6.183.011.02.048.074 4.073 6.185.052.079.038.042 1.12 1.245-3.605 4.355-.03.039-2.212 2.96zm-24.194-8.646l.018-.186-.23-.535-.189-.64-.173-1.193 1.717-3.643 5.056-4.734 1.638-2.79 1.774.115 2.683 7.386-1.444 1.435-.025.028-.037.042-7.705 9.263-.05.062-1.179 1.677-1.854-6.287zm18.623-12.517l.828-5.58.074.02.16.754.016.077.03.079 1.035 2.673-1.044.886-.057.055-1.042 1.036zm3.12-4.971l1.831.485.03.098-1.23 1.045-.63-1.628zm2.494 2.664l.327 1.079 4.888-1.078.712.402 4.892-1.918 1.35 1.632 4.28-2.055 3.384-4.243 3.108.177-2.222 1.828.104 1.36-2.175.113-1.603 1.629 1.696 3.067-5.014 5.056-.039.039-5.89 6.62-.025.029-.682.825-.885-.984-3.972-6.033-3.214-6.3-.12-.311 1.1-.934zM138.6 88.915l.855-1.176 2.223.199-1.24 3.457-3.439.6 1.601-3.08zm3.06 4.293l.448.103-2.826 3.626-2.523.089-1.24-1.111.572-1.737 5.568-.97zm56.436-32.477l.035.096-.345-.078.31-.018zm-5.697-1.665l.708-.569-.65-1.275 1.77-.614 2.85 1.279.312.888-4.99.29zm-45.318 24.319l-.052-.234.624.007-.572.227zm-.496-2.23l-.262-1.18-.47-.223 3.365-3.124 3.661-2.56 2.283.317 5.773 1.162 6.02 1.792 6.2 2.388-1.696 1.374-1.503.039-5.066 1.306-4.58-.635-.062-.008-2.027-.158-.547-.852-.576.764-3.932-.307.114-.332-.76.302-5.935-.065zm-2.67-2.324l-1.529-.726-.04-3.605-7.978.366 2.438-.721 7.393-.627 5.348.087.434.06-1.972 1.38-.07.05-.04.036-3.984 3.7zm-8.54-7.341l.716-.804c.79-.418 1.583-.828 2.382-1.23l-3.099 2.034zm18.795-6.752l.79.142.712 2.238 1.945-.087 2.86-2.04 2.848.865-5.21 2.604-.073.039-5.209 3.172-.05.035-.4.28-2.61-.362-.05-.006-.072-.003-5.503-.09h-.097l-5.846.496 1.346-.883 5.106-2.622 7.947-3.554 1.566-.224zm23.572-3.437l.153-.248 1.664-.205-1.817.453zm8.185 2.903l.49.417.04.25-.53-.667zm1.094 5.21l-3.143 2.024 3.703.393-.15 1.224-1.022.206-.095.019-.054.02-3.72 1.366-2.895-2.39-.032-.025-.054-.036-6.527-4.294-.063-.041-.04-.021-3.834-1.89 5.76-1.89 6.58-1.643.353-.06.701.705 3.29 4.143 1.242 2.19zm-.099 5.775l-2.915 2.415-2.323 3.226-6.954.184.567-.458 5.388-3.084 6.208-2.277.03-.006zm-27.159 8.579l-.157.04-.035-.055.192.015zm-4.089-.32l-.626.834-3.397 1.398.845-2.47.166.002 3.012.237zm39.268-18.501l2.462-3.172-3.01-.828-5.977.348-1.563 1.466.717 3.584.048.084 1.611 1.42 5.712-2.902zm-3.933-5.8l1.216-.623-.274-1.656-1.059-.306-1.247.055-4.063.479-.706.856 2.021 1.509-.009.02.781-.134.05-.008.063-.004 3.227-.188z" fill="#92c570"/>
  <path d="M393.674 216.055l-.083 1.255c-.33 5.435-4.596 5.355-6.319 5.273-3.682-.181-6.315-1.86-6.074-5.745l.04-.709c.01-.214.075-.466.133-.67l12.303.596zM0 188.267l1.505.242.125-.661c.278-1.529 2.397-1.444 4.422-1.124l21.764 3.479c2.027.32 4.057.903 3.774 2.433l-.122.662 1.507.239 1.551-8.435-1.507-.242-.069.375c-.462 2.521-2.763 2.371-6.437 1.781L9.506 184.3l.032-.167 26.128-5.232.567-3.057-22.629-13.829.025-.123 18.746 2.993c1.51.24 4.164.837 3.708 3.316l-.074.41 1.505.244 2.74-14.884-1.51-.242-.12.662c-.283 1.531-2.402 1.449-4.426 1.124l-21.768-3.479c-2.26-.359-4.079-.732-3.762-2.469l.116-.618-1.51-.247-2.098 11.41 18.69 11.499-21.577 4.216L0 188.267zm9.673-49.069l1.428.524.252-.628c.582-1.45 2.634-.966 4.55-.26l20.585 7.56c1.916.7 3.782 1.656 3.198 3.107l-.25.628 1.425.527 8.516-21.218-7.62-4.823-1.164 1.234c3.552 2.748 4.423 7.071 3.04 10.522-.442 1.096-1.12 2.016-3.794 1.04l-8.998-3.31c.894-2.863 3.436-2.966 6.815-1.947l.566-1.412-13.366-4.915-.568 1.413c3.145 1.337 4.891 2.967 3.7 5.811l-11.006-4.04.726-1.807c.818-2.039 3.29-6.035 8.44-4.723l.554-1.373-8.653-2.772-8.376 20.862zm23.41-42.195l23.49 13.539-5.72 9.246c-1.393-3.938-5.136-8.84-17.497-15.968l-3.315-1.908 3.041-4.909zm-9.24 9.272l1.308.756.225-.359c1.585-2.565 4.31-1.582 6.276-.448 5.606 3.228 19.667 12.803 15.934 18.833l-.314.503 9.865 5.684.83-1.339c-6.932-4.137-4.65-8.457-2.819-11.416l5.883-9.495c1.875-3.034 4.646-6.875 11.754-3.023l.827-1.335-9.86-5.685-.56.903c-1.232 1.983-2.115 2.16-3.058 1.619l-1.229-.712-18.457-10.637c-1.759-1.01-3.428-2.266-2.603-3.602l.361-.579-1.31-.75-13.054 21.082zm44.981-24.633L56.567 70.374c-1.487-1.364-2.825-2.943-1.72-4.082l.473-.486-1.102-1.021-10.323 10.604 1.101 1.013.51-.523c1.1-1.134 2.802.085 4.288 1.449l15.95 14.665c1.486 1.369 2.827 2.948 1.721 4.083l-.478.488 1.107 1.018 10.293-10.573-1.1-1.008-.54.55c-.804.822-2.09.456-3.159-.525l-.31-.285-7.193-17.88.118-.122 12.225 11.235c1.483 1.372 2.824 2.95 1.72 4.084l-.478.487 1.107 1.02 10.294-10.572-1.104-1.014-.477.493c-1.105 1.134-2.805-.085-4.289-1.444L69.25 57.357c-1.483-1.363-2.826-2.943-1.724-4.076l.478-.493-1.104-1.02L56.607 62.34l1.101 1.015.51-.525c.952-.979 2.494-.136 3.184.495l.31.286 7.232 17.916-.12.115zM87.7 36.495l.898 1.19.561-.4c1.288-.925 2.736.569 3.94 2.17l14.535 19.324-6.002 4.307L87.1 43.765c-1.21-1.606-2.232-3.394-.943-4.317l.558-.406-.898-1.196-12.038 8.653.894 1.189.563-.401c1.291-.923 2.733.564 3.94 2.166l12.96 17.235c1.21 1.607 2.231 3.394.941 4.324l-.558.401.896 1.194 18.953-13.614c3.732-2.68 7.532-3.917 11.971 1.628l1.293-.931-6.76-8.985-.875.624c-2.095 1.504-2.693 1.422-4.323-.743l-12.65-16.824c-1.21-1.607-2.233-3.393-.94-4.317l.56-.407-.902-1.195-12.04 8.652zm42.784 1.202l-6.235-15.283c-.756-1.854-1.289-3.841.2-4.426l.64-.252-.563-1.38-13.87 5.5.562 1.38.682-.273c1.483-.589 2.493 1.211 3.251 3.062l8.115 19.89c.755 1.853 1.284 3.838-.195 4.425l-.643.259.562 1.373 13.83-5.48-.559-1.379-.724.287c-1.08.427-2.085-.426-2.629-1.759l-.157-.387 1.174-19.274.16-.061 6.215 15.24c.758 1.853 1.287 3.84-.193 4.428l-.643.25.563 1.38 13.83-5.479-.565-1.378-.64.25c-1.485.591-2.497-1.208-3.252-3.062l-8.113-19.889c-.756-1.853-1.285-3.837.194-4.425l.645-.258-.565-1.373-13.829 5.478.564 1.378.68-.27c1.28-.509 2.314.88 2.664 1.745l.164.387-1.16 19.317-.16.059zM165.568 19l-1.397-8.764c-.314-1.973-.38-4.034 1.194-4.286l.685-.113-.23-1.463-14.705 2.374.236 1.465.68-.11c1.58-.252 2.153 1.728 2.47 3.693l3.377 21.201c.312 1.972.382 4.028-1.2 4.288l-.68.11.234 1.471 14.698-2.376-.232-1.469-.68.11c-1.573.259-2.156-1.719-2.468-3.692l-1.52-9.548 7.67-1.236 1.516 9.541c.32 1.972.376 4.038-1.198 4.295l-.68.104.236 1.469 14.698-2.374-.234-1.463-.684.104c-1.577.253-2.155-1.719-2.469-3.692l-3.37-21.198c-.32-1.978-.385-4.035 1.19-4.291l.68-.112-.23-1.47-14.699 2.38.232 1.464.681-.11c1.58-.252 2.157 1.721 2.467 3.694l1.4 8.769L165.568 19zM218.514.82L216.92.741c-.189.921-.302 1.335-1.163 1.291-.39-.012-.772-.171-1.105-.332C212.85.912 211.08.169 208.023.025c-9.857-.494-17.19 6.268-17.835 16.671-.528 8.405 4.38 17.031 14.923 17.557 3.485.174 8.207-.712 12.825-5.514l-1.535-1.708c-2.52 2.348-4.982 3.714-7.566 3.588-3.269-.163-8.347-2.553-7.635-13.935.774-12.442 5.817-13.735 8.83-13.582 4.352.214 5.893 5.321 6.245 8.695l1.547.074.692-11.051zm1.265 33.752l14.431 3.329.368-1.447-.665-.153c-1.55-.357-1.292-2.409-.799-4.357l2.405-9.41.252.058 2.403 11.761c.074.4.213 1.251.087 1.745-.204.773-.586 1.067-1.173.933l-.372-.087-.369 1.446 13.723 3.162.368-1.448c-1.699-1.678-2.07-4.209-2.425-5.587l-4.27-16.943 5.981-4.181c3.387-2.333 5.09-2.753 6.512-2.425l.376-1.45-11.844-2.728-.374 1.449c2.46.803 2.424 1.949 2.186 2.895-.31 1.223-1.287 2.437-4.305 4.571l-5.762 3.985-.255-.052 2.195-8.599c.5-1.948 1.258-3.882 2.806-3.527l.674.159.368-1.454-14.437-3.324-.374 1.449.673.152c1.548.362 1.288 2.406.796 4.354l-5.338 20.91c-.502 1.948-1.26 3.875-2.803 3.521l-.672-.155-.367 1.448zm48.166 3.311l7.377-14.946c.892-1.806 2.043-3.555 3.477-2.897l.625.284.662-1.351-13.44-6.146-.669 1.353.67.301c1.432.657.75 2.614-.147 4.429l-9.6 19.443c-.892 1.814-2.04 3.557-3.478 2.905l-.624-.285-.667 1.346 13.408 6.128.662-1.344-.696-.319c-1.05-.482-1.069-1.781-.429-3.087l.188-.383 15.348-12.383.162.069-7.362 14.909c-.896 1.809-2.04 3.556-3.482 2.9l-.62-.286-.66 1.35 13.401 6.129.661-1.35-.622-.284c-1.43-.66-.75-2.616.142-4.429l9.598-19.449c.896-1.811 2.045-3.558 3.48-2.9l.624.284.66-1.344-13.4-6.131-.665 1.345.66.301c1.242.572.88 2.262.47 3.105l-.185.376-15.376 12.428-.153-.071zm50.826 1.264c-5.616-4.117-5.417-7.194-4.252-8.681 1.021-1.303 2.758-1.668 4.503-.386 1.785 1.309 1.753 2.923.97 3.929-.236.294-.904.744-1.225 1.149-.76.97.59 2.138 1.14 2.54.547.399 2.07 1.341 2.828.372.326-.408.584-1.152.814-1.45.788-1.004 2.391-1.466 4.168-.163 1.754 1.276 1.854 2.999.84 4.299-1.166 1.489-4.173 2.509-9.786-1.609zm-18.365 16.645l10.341-13.215c1.26-1.594 2.745-3.08 4.01-2.152l.551.399.932-1.192-11.844-8.685-.935 1.19.585.427c1.265.928.184 2.718-1.065 4.319l-13.458 17.192c-1.255 1.604-2.74 3.089-4.01 2.162l-.546-.4-.936 1.19 11.812 8.655.934-1.189-.62-.454c-.922-.674-.676-1.962.228-3.112l.266-.332 17.592-9.127.14.1-10.316 13.175c-1.256 1.597-2.74 3.089-4.004 2.161l-.552-.404-.93 1.187 11.807 8.664.936-1.19-.55-.403c-1.265-.928-.186-2.718 1.063-4.319l13.456-17.194c1.257-1.594 2.744-3.086 4.01-2.158l.544.405.932-1.191-11.803-8.663-.933 1.189.584.434c1.088.797.388 2.389-.192 3.133l-.265.331-17.629 9.17-.135-.103zm59.9 27.4l-1.234.89.408.535c.941 1.246-.607 2.669-2.269 3.862l-20.026 14.38-4.388-5.769 20.033-14.382c1.656-1.193 3.515-2.217 4.456-.975l.41.539 1.234-.892-8.79-11.575-1.236.888.407.54c.945 1.24-.603 2.663-2.268 3.856l-17.867 12.828c-1.66 1.192-3.515 2.208-4.46.969l-.402-.54-1.24.892 13.832 18.223c2.728 3.592 3.964 7.268-1.79 11.652l.95 1.241 9.313-6.688-.633-.84c-1.528-2.015-1.434-2.597.808-4.208L363 96.098c1.656-1.192 3.513-2.215 4.457-.97l.404.534 1.235-.892-8.789-11.578zm13.964 21.857l-1.399.627.284.604c.655 1.405-1.162 2.489-3.036 3.323l-20.184 8.966c-1.883.842-3.908 1.465-4.565.059l-.287-.604-1.397.619 9.603 20.559 8.967-1.921-.089-1.651c-4.546.545-8.352-1.845-9.91-5.187-.496-1.066-.704-2.174 1.92-3.338l8.83-3.923c1.472 2.603-.254 4.429-3.402 6.056l.641 1.365 13.1-5.82-.633-1.374c-3.216 1.248-5.663 1.322-6.913-1.469l10.791-4.796.816 1.746c.928 1.979 2.118 6.454-2.506 9.104l.625 1.328 8.18-4.05-9.436-20.223zm2.097 46.05l8.927-2.033c2.005-.464 4.124-.68 4.477.821l.155.651 1.5-.338-3.328-14.045-1.499.343.155.649c.358 1.508-1.644 2.22-3.653 2.678l-21.585 4.918c-2.008.455-4.124.683-4.484-.821l-.148-.65-1.495.336 3.333 14.045 1.488-.341-.153-.651c-.354-1.508 1.642-2.219 3.651-2.677l9.72-2.215 1.737 7.329-9.719 2.212c-2.008.462-4.126.683-4.482-.816l-.153-.657-1.494.343 3.332 14.047 1.49-.343-.153-.651c-.354-1.508 1.642-2.225 3.651-2.675l21.583-4.92c2.008-.462 4.124-.684 4.482.816l.153.657 1.496-.343-3.328-14.048-1.496.343.155.65c.36 1.507-1.643 2.225-3.652 2.677l-8.922 2.037-1.74-7.328zm-13.298 29.867l.933 15.57 1.53-.095-.075-1.255c-.094-1.541 1.995-1.925 4.057-2.056l24.785-1.538.031.543c.246 3.961-2.78 6.411-6.05 7.162l.092 1.543 9.456-.961-1.593-26.424-9.489.214.09 1.544c3.33.337 6.625 2.351 6.863 6.355l.032.549-24.789 1.539c-2.056.123-4.18.012-4.27-1.532l-.079-1.254-1.524.096zm34.347 23.284l-1.536-.074-.035.668c-.099 1.551-2.215 1.692-4.277 1.593l-22.096-1.067c-2.056-.102-4.147-.45-4.05-1.995l.037-.675-1.528-.071-.915 15.002 1.524.078.078-1.254c.097-1.549 2.22-1.698 4.273-1.594l9.471.45a48.181 48.181 0 00-.367 3.63c-.288 4.728.037 12.75 8.688 13.168 9.184.445 9.506-7.883 9.648-10.098l1.085-17.761zM346.704 313.821h22.23v-2.007h-1.03c-2.384 0-2.774-2.769-2.774-5.466l.001-13.058h.39l7.855 14.688c.255.507.775 1.574.775 2.263.001 1.073-.455 1.573-1.355 1.573h-.582v2.007h21.135v-2.007c-3.095-1.701-4.575-4.903-5.603-6.591l-12.5-20.919 7.148-7.284c4.06-4.082 6.38-5.149 8.567-5.149v-2.011h-18.225v2.011c3.864.314 4.246 1.824 4.246 3.14 0 1.698-.966 3.576-4.574 7.284l-6.888 6.968h-.389v-11.927c0-2.701.387-5.465 2.772-5.465h1.031v-2.011h-22.23v2.011h1.027c2.39 0 2.773 2.764 2.773 5.465l.001 29.012c0 2.697-.386 5.466-2.774 5.466h-1.027v2.007zm-306.37-42.9l-16.026 22.884c-3.373 5.067-10.402 13.972-22.21 16.165v4.385H41.74v-4.385c-4.359.409-8.714-2.743-8.714-7.535 0-3.97 1.685-6.44 3.23-8.496l9.56-13.568 13.072 22.064c1.266 2.056 1.407 3.565 1.407 4.115.001 2.601-2.528 3.42-3.652 3.42h-.846v4.385h85.486v-4.385c-4.357.409-8.715-2.743-8.715-7.535.001-3.97 1.687-6.44 3.232-8.496l9.56-13.568 13.074 22.064c1.264 2.056 1.405 3.565 1.405 4.115.001 2.601-2.53 3.42-3.655 3.42h-.845v4.385h99.264v-4.385h-2.25c-5.198 0-6.042-6.029-6.042-11.917l.001-63.308c0-5.887.841-11.914 6.04-11.914h2.251v-4.386h-48.78v4.386h2.531c5.201 0 6.046 6.027 6.046 11.914l.001 63.308c0 5.888-.846 11.917-6.048 11.917h-1.564c-5.48-.407-10.965-5.617-13.633-10.548l-23.615-40.284 16.162-22.745c5.625-8.085 8.377-12.606 15.69-13.562v-4.386h-35.37v4.386h1.97c3.792 0 7.166 2.735 7.166 6.983 0 3.975-1.964 7.399-3.509 9.458l-7.593 10.552-11.388-19.46c-.703-1.234-1.545-2.47-1.545-4.247.001-2.33 2.11-3.286 3.653-3.286h.846v-4.386H107.04v4.386c6.468.407 8.238 6.166 9.786 8.904l23.056 39.186-16.03 22.884c-3.105 4.666-9.312 12.589-19.498 15.524-4.439-1.604-8.543-5.849-10.743-9.907l-23.612-40.284 16.162-22.745c5.624-8.085 8.378-12.606 15.69-13.562v-4.386H66.48v4.386h1.97c3.793 0 7.166 2.735 7.166 6.983.001 3.975-1.966 7.399-3.513 9.458l-7.588 10.552-11.389-19.46c-.703-1.234-1.549-2.47-1.549-4.247.001-2.33 2.11-3.286 3.658-3.286h.84v-4.386H5.328v4.386c6.472.407 10.406 6.166 11.952 8.904l23.054 39.186zm243.042 39.259c-1.355 0-2.836-.379-2.836-3.457v-14.001c8.505-.19 9.667 4.96 9.667 8.352.001 7.35-4.255 9.106-6.83 9.106zm-2.836-36.363h1.154c1.487 0 7.671.067 7.671 7.35.001 5.271-3.48 7.596-7.018 7.596h-1.807v-14.946zm11.334 16.832v-.251c4.898-.312 11.41-3.325 11.41-10.297 0-8.479-8.508-10.241-16.428-10.241h-24.745v2.011h1.036c2.38 0 2.762 2.764 2.762 5.465v29.012c0 2.697-.383 5.466-2.762 5.466h-1.036v2.007h24.481c12.888 0 18.947-4.585 18.947-12.057.002-8.542-8.769-10.799-13.665-11.115zm14.075-20.789v2.011h1.035c2.38 0 2.768 2.764 2.768 5.465v29.012c0 2.697-.388 5.466-2.769 5.466h-1.034v2.007h34.858l2.904-11.741-2.39-.819c-2.062 5.715-7.793 8.919-13.465 8.919-1.8 0-3.478-.379-3.478-4.147V293.35c4.574-.318 6.056 2.764 6.377 7.412h2.32v-18.837h-2.32c-.255 4.513-1.669 7.466-6.377 7.405v-15.513h2.96c3.35 0 10.378 1.067 11.215 8.039h2.254l-.579-11.996H305.95z" fill="#0075ac"/>
  <path d="M22.38 359.855c0 .472-.17.708-.507.708H18.5c-.338 0-.506-.236-.506-.708l-.27-11.434v-5.397c-.292 1.31-.495 2.243-.607 2.805-.18.838-.41 1.67-.68 2.508l-2.063 6.594a4.469 4.469 0 01-.152.388c-.056.123-.197.185-.422.185h-2.406c-.247 0-.405-.073-.472-.219a2.044 2.044 0 01-.135-.354l-1.962-6.578a42.007 42.007 0 01-.68-2.698 49.728 49.728 0 01-.506-2.597l-.169 6.881-.303 9.922c0 .466-.18.702-.54.702h-2.8c-.359 0-.539-.236-.539-.708l.944-21.688c0-.472.18-.708.54-.708h3.575c.27 0 .461.18.574.539l2.732 8.523c.224.742.438 1.518.641 2.316.202.804.326 1.383.37 1.743.136-.742.293-1.434.473-2.064.292-.832.517-1.501.674-1.995l2.867-8.523c.068-.18.135-.315.203-.404.067-.09.202-.135.405-.135h3.44c.292 0 .483.056.573.168.09.113.135.416.135.911l.945 21.317zm17.842-21.789l-.675 2.529c-.067.338-.28.506-.64.506h-6.645v5.6h5.666c.315 0 .506.078.573.236.068.157.102.303.102.438v2.294c0 .314-.079.506-.236.573a1.117 1.117 0 01-.439.102h-5.666v6.577h7.015c.45 0 .675.225.675.674v2.294c0 .315-.079.506-.236.573a1.11 1.11 0 01-.439.101H28.35c-.315 0-.506-.078-.573-.236a1.108 1.108 0 01-.102-.438v-21.756c0-.315.08-.506.236-.573.158-.068.304-.101.44-.101h11.433c.18 0 .31.05.388.152.08.101.096.252.051.455zm20.035 27.254c0 .449-.224.674-.674.674h-2.935c-.315 0-.506-.079-.573-.236a1.087 1.087 0 01-.1-.433v-4.762h-9.58v4.762c0 .309-.079.5-.237.568a1.123 1.123 0 01-.438.101h-2.935c-.314 0-.506-.079-.573-.236a1.131 1.131 0 01-.1-.438v-7.725c0-.449.224-.674.68-.674h.645c.501-.9.9-1.793 1.192-2.682.298-.888.54-1.934.731-3.137.197-1.203.326-2.372.394-3.508.067-1.135.101-2.119.101-2.951v-6.51c0-.45.225-.674.674-.674h11.03c.315 0 .506.078.574.236.067.157.101.303.101.438v18.788h1.35c.314 0 .505.079.572.236.068.157.101.303.101.438v7.725zm-6.61-8.399v-15.82h-3.508v4.217c0 1.776-.057 3.176-.169 4.199a26.36 26.36 0 01-.55 3.12c-.344 1.552-.845 2.979-1.508 4.284h5.734zm26.612 2.968c0 .45-.225.674-.674.674h-3.238c-.315 0-.506-.078-.574-.236a1.123 1.123 0 01-.1-.438v-10.726l.134-3.71h-.135c-.36 1.012-.624 1.714-.793 2.108-.168.393-.534 1.197-1.096 2.411l-4.655 10.018c-.18.382-.438.573-.775.573h-3.238c-.315 0-.506-.078-.574-.236a1.123 1.123 0 01-.1-.438v-21.756c0-.315.078-.506.235-.573a1.11 1.11 0 01.44-.101h3.237c.315 0 .506.078.573.236.067.157.101.303.101.438v9.714c0 .18-.022.833-.067 1.957a71.919 71.919 0 00-.068 2.766h.135l2.226-5.228 4.25-9.175c.135-.292.225-.461.27-.506.135-.135.337-.202.607-.202h3.205c.314 0 .506.078.573.236.067.157.101.303.101.438v21.756zm23.105 5.431c0 .449-.225.674-.675.674h-2.934c-.315 0-.506-.079-.573-.236a1.09 1.09 0 01-.102-.433v-4.762H86.938c-.315 0-.506-.078-.574-.236a1.123 1.123 0 01-.1-.438v-21.756c0-.315.078-.506.235-.573a1.11 1.11 0 01.44-.101h3.237c.315 0 .506.078.573.236.068.157.101.303.101.438v18.788h5.903v-18.788c0-.315.08-.506.236-.573.158-.068.304-.101.44-.101h3.237c.314 0 .506.078.573.236.067.157.101.303.101.438v18.788h1.35c.45 0 .674.225.674.674v7.725zm20.002-5.431c0 .45-.225.674-.675.674h-3.238c-.315 0-.506-.078-.573-.236a1.108 1.108 0 01-.102-.438v-10.726l.135-3.71h-.135c-.359 1.012-.623 1.714-.792 2.108-.169.393-.534 1.197-1.096 2.411l-4.655 10.018c-.18.382-.439.573-.776.573h-3.238c-.315 0-.506-.078-.573-.236a1.108 1.108 0 01-.102-.438v-21.756c0-.315.08-.506.236-.573.158-.068.304-.101.44-.101h3.237c.315 0 .506.078.573.236.068.157.102.303.102.438v9.714c0 .18-.023.833-.068 1.957a71.618 71.618 0 00-.067 2.766h.135l2.226-5.228 4.25-9.175c.135-.292.225-.461.27-.506.134-.135.337-.202.607-.202h3.204c.315 0 .506.078.574.236.067.157.101.303.101.438v21.756zm21.553 0c0 .45-.225.674-.675.674h-3.238c-.449 0-.674-.224-.674-.674v-9.512h-6.375v9.512c0 .292-.056.478-.169.557-.112.078-.28.117-.506.117h-3.238c-.45 0-.675-.224-.675-.674v-21.756c0-.292.057-.478.17-.556.112-.079.28-.118.505-.118h3.238c.45 0 .675.224.675.674v8.601h6.375v-8.601c0-.292.056-.478.168-.556.113-.079.281-.118.506-.118h3.238c.292 0 .478.056.557.168.078.113.118.281.118.506v21.756zm22.06.27c0 .202-.068.32-.203.354-.135.034-.248.05-.338.05h-3.744c-.224 0-.376-.033-.455-.101-.079-.067-.163-.27-.253-.607l-1.484-5.464H154.7l-1.382 5.464c-.113.472-.315.708-.608.708h-3.609c-.315 0-.494-.067-.539-.202-.045-.135-.034-.292.033-.472l6.713-21.924c.112-.338.303-.506.573-.506h3.88c.224 0 .392.18.505.539l6.611 21.756.101.405zm-7.32-8.804l-1.383-5.784c-.18-.759-.338-1.58-.473-2.451a38.757 38.757 0 01-.269-2.019c-.113.939-.18 1.501-.203 1.681-.112.63-.326 1.557-.64 2.789l-1.485 5.784h4.453zm34.742 6.684l-.878 2.558c-.134.338-.382.506-.742.506-.472 0-.955-.056-1.45-.168-.855-.203-1.524-.506-2.007-.906-.483-.404-.837-.944-1.062-1.619-.113-.331-.248-.916-.405-1.748l-.81-4.031c-.135-.719-.326-1.225-.573-1.512-.405-.495-1.068-.742-1.99-.742h-1.45v9.512c0 .292-.057.478-.169.557-.113.078-.28.117-.506.117h-3.238c-.45 0-.675-.224-.675-.674v-21.756c0-.292.057-.478.17-.556.111-.079.28-.118.505-.118h3.238c.45 0 .675.224.675.674v8.601h1.146c.855 0 1.501-.174 1.94-.523.438-.348.747-1.017.927-2.006l.506-2.868c.18-1.101.428-1.894.743-2.377a3.794 3.794 0 011.214-1.181 5.812 5.812 0 011.585-.674c.562-.147 1.023-.22 1.383-.22.337 0 .551.135.641.405l.708 2.395c.113.404 0 .641-.337.708l-.844.202c-.427.113-.73.282-.91.506-.248.315-.439.866-.574 1.653l-.404 2.395c-.135.787-.37 1.417-.709 1.889-.427.63-1.068 1.091-1.922 1.383.832.292 1.495.742 1.99 1.343.494.608.843 1.383 1.045 2.322l.54 2.828c.157.809.32 1.354.49 1.647.168.292.5.495.994.607l.877.202a.46.46 0 01.321.22c.078.123.084.275.017.449zm19.428 2.12c0 .202-.068.32-.202.354-.136.034-.248.05-.338.05h-3.744c-.225 0-.377-.033-.455-.101-.079-.067-.163-.27-.253-.607l-1.484-5.464h-5.802l-1.383 5.464c-.112.472-.314.708-.607.708h-3.609c-.315 0-.495-.067-.54-.202-.045-.135-.033-.292.034-.472l6.712-21.924c.113-.338.304-.506.574-.506h3.88c.224 0 .392.18.505.539l6.611 21.756.101.405zm-7.32-8.804l-1.382-5.784c-.18-.759-.338-1.58-.473-2.451a37.903 37.903 0 01-.27-2.019c-.112.939-.179 1.501-.202 1.681-.112.63-.326 1.557-.64 2.789l-1.485 5.784h4.452zm34.675 6.684l-.877 2.558c-.135.338-.37.506-.709.506-.314 0-.573-.011-.775-.033-1.192-.135-2.114-.495-2.766-1.074-.45-.383-.787-.911-1.012-1.586-.112-.331-.247-.916-.405-1.748l-.809-4.031c-.135-.719-.326-1.225-.574-1.512-.405-.495-1.068-.742-1.99-.742h-.978v9.512c0 .45-.225.674-.675.674h-3.238c-.449 0-.674-.224-.674-.674v-9.512h-.978c-.922 0-1.586.247-1.99.742-.248.287-.439.793-.574 1.512l-.809 4.031c-.18.922-.304 1.495-.372 1.715a3.767 3.767 0 01-1.079 1.669c-.495.433-1.225.742-2.192.922-.315.045-.753.09-1.316.135-.247 0-.427-.056-.539-.168-.023-.023-.079-.135-.169-.338l-.877-2.558c-.112-.354 0-.579.337-.669l.877-.202c.495-.112.827-.303.995-.573.17-.27.332-.827.49-1.681l.54-2.828c.18-.961.5-1.72.96-2.271.461-.545 1.153-.978 2.075-1.293-.832-.337-1.445-.793-1.839-1.366-.393-.574-.657-1.242-.792-2.007l-.405-2.395c-.135-.787-.304-1.315-.506-1.585s-.528-.461-.978-.574l-.843-.202c-.337-.067-.45-.304-.337-.708l.708-2.395c.09-.27.303-.405.64-.405.45 0 .917.062 1.401.186.483.123.972.343 1.467.657.697.405 1.203.945 1.517 1.62.203.427.383 1.09.54 1.989l.506 2.868c.18.989.49 1.658.928 2.006.438.349 1.085.523 1.94.523h.674v-8.601c0-.292.056-.478.168-.556.113-.079.282-.118.506-.118h3.238c.45 0 .675.224.675.674v8.601h.675c.854 0 1.501-.174 1.94-.523.437-.348.747-1.017.927-2.006l.506-2.868c.18-1.101.427-1.894.742-2.377a3.794 3.794 0 011.214-1.181 5.812 5.812 0 011.585-.674c.562-.147 1.023-.22 1.383-.22.337 0 .551.135.641.405l.708 2.395c.113.404 0 .641-.337.708l-.843.202c-.428.113-.73.282-.91.506-.248.315-.439.866-.574 1.653l-.405 2.395c-.135.787-.37 1.417-.708 1.889-.428.63-1.069 1.091-1.923 1.383.9.359 1.585.821 2.057 1.377.473.562.8 1.327.98 2.288l.538 2.828c.158.809.321 1.354.49 1.647.168.292.5.495.994.607l.877.202a.46.46 0 01.321.22c.08.123.084.275.017.449zm19.192 7.281c0 .449-.225.674-.675.674h-2.934c-.315 0-.506-.079-.574-.236a1.105 1.105 0 01-.1-.433v-4.762h-9.58v4.762c0 .309-.079.5-.236.568a1.131 1.131 0 01-.438.101h-2.935c-.315 0-.506-.079-.573-.236a1.116 1.116 0 01-.102-.438v-7.725c0-.449.225-.674.68-.674h.647c.5-.9.9-1.793 1.192-2.682.298-.888.54-1.934.731-3.137.197-1.203.326-2.372.393-3.508.068-1.135.101-2.119.101-2.951v-6.51c0-.45.225-.674.675-.674h11.03c.314 0 .506.078.573.236.068.157.101.303.101.438v18.788h1.35c.314 0 .505.079.573.236.067.157.101.303.101.438v7.725zm-6.61-8.399v-15.82h-3.509v4.217c0 1.776-.056 3.176-.168 4.199a26.366 26.366 0 01-.552 3.12c-.343 1.552-.843 2.979-1.506 4.284h5.734zm26.207-7.91c0 1.597-.112 2.996-.337 4.211-.405 2.198-1.147 3.963-2.226 5.29-1.417 1.726-3.362 2.591-5.836 2.591-2.766 0-4.857-1.051-6.273-3.148-1.417-2.102-2.125-5.082-2.125-8.944 0-1.574.112-2.974.337-4.21.405-2.199 1.147-3.964 2.226-5.29 1.44-1.749 3.384-2.626 5.835-2.626 2.744 0 4.83 1.063 6.257 3.182 1.428 2.125 2.142 5.104 2.142 8.944zm-4.79 0c0-2.31-.19-4.132-.573-5.453-.585-2.018-1.597-3.03-3.036-3.03-1.416 0-2.417 1.012-3.002 3.03-.404 1.389-.607 3.21-.607 5.453 0 2.243.17 3.997.506 5.251.562 2.13 1.597 3.198 3.103 3.198 1.484 0 2.508-1.057 3.07-3.164.36-1.322.54-3.087.54-5.285zm22.06-11.148l-.068.304-.674 2.8a.601.601 0 01-.219.388c-.124.101-.31.151-.557.151h-6.544v18.383c0 .45-.224.674-.674.674h-3.238c-.315 0-.506-.078-.574-.236a1.123 1.123 0 01-.1-.438v-21.756c0-.315.078-.506.235-.573a1.11 1.11 0 01.44-.101h11.433c.36 0 .54.135.54.404zm16.764 11.148c0 1.597-.113 2.996-.338 4.211-.405 2.198-1.147 3.963-2.226 5.29-1.416 1.726-3.362 2.591-5.835 2.591-2.766 0-4.857-1.051-6.274-3.148-1.416-2.102-2.125-5.082-2.125-8.944 0-1.574.113-2.974.337-4.21.405-2.199 1.147-3.964 2.227-5.29 1.44-1.749 3.384-2.626 5.835-2.626 2.743 0 4.83 1.063 6.257 3.182 1.428 2.125 2.142 5.104 2.142 8.944zm-4.79 0c0-2.31-.19-4.132-.573-5.453-.585-2.018-1.597-3.03-3.036-3.03-1.417 0-2.417 1.012-3.002 3.03-.405 1.389-.607 3.21-.607 5.453 0 2.243.168 3.997.506 5.251.562 2.13 1.596 3.198 3.103 3.198 1.484 0 2.507-1.057 3.07-3.164.36-1.322.54-3.087.54-5.285zm33.09 16.309c0 .449-.226.674-.676.674h-2.934c-.315 0-.506-.079-.573-.236a1.09 1.09 0 01-.102-.433v-4.762h-9.579v4.762c0 .309-.079.5-.236.568a1.127 1.127 0 01-.438.101h-2.935c-.315 0-.506-.079-.573-.236a1.116 1.116 0 01-.102-.438v-7.725c0-.449.225-.674.68-.674h.647c.5-.9.9-1.793 1.192-2.682.298-.888.54-1.934.731-3.137.197-1.203.326-2.372.393-3.508.068-1.135.102-2.119.102-2.951v-6.51c0-.45.224-.674.674-.674h11.03c.314 0 .506.078.573.236.068.157.101.303.101.438v18.788h1.35c.314 0 .505.079.573.236.067.157.101.303.101.438v7.725zm-6.612-8.399v-15.82h-3.508v4.217c0 1.776-.056 3.176-.168 4.199a26.366 26.366 0 01-.552 3.12 17.93 17.93 0 01-1.506 4.284h5.734zm26.343 2.968c0 .45-.225.674-.675.674h-3.238c-.449 0-.674-.224-.674-.674v-9.512h-6.375v9.512c0 .292-.056.478-.169.557-.112.078-.28.117-.506.117h-3.238c-.45 0-.674-.224-.674-.674v-21.756c0-.292.056-.478.168-.556.113-.079.281-.118.506-.118h3.238c.45 0 .675.224.675.674v8.601h6.375v-8.601c0-.292.056-.478.168-.556.113-.079.282-.118.506-.118h3.238c.293 0 .478.056.557.168.08.113.118.281.118.506v21.756zm19.327 0c0 .292-.056.478-.169.557-.112.078-.28.117-.505.117h-3.239c-.292 0-.477-.056-.556-.168-.079-.113-.118-.281-.118-.506v-8.736h-1.484c-.922 0-1.574.247-1.957.736-.247.293-.449.793-.607 1.507l-.775 3.519c-.203.961-.405 1.642-.608 2.046a3.368 3.368 0 01-.826 1.051c-.349.304-.866.563-1.552.771-.685.213-1.298.32-1.838.32-.427 0-.708-.168-.843-.506l-.877-2.546c-.113-.36 0-.58.337-.669l.877-.203c.427-.112.742-.309.944-.584.203-.282.394-.838.574-1.664l.371-1.675c.202-.917.472-1.653.81-2.215.45-.737 1.101-1.293 1.956-1.676a7.17 7.17 0 01-1.703-.826c-.574-.377-1.012-.787-1.316-1.237-.303-.45-.539-.995-.708-1.625a6.687 6.687 0 01-.253-1.725c0-.945.174-1.844.523-2.688.348-.843.837-1.551 1.467-2.113.787-.703 1.821-1.186 3.103-1.456.764-.158 1.687-.236 2.766-.236h5.532c.45 0 .674.224.674.674v21.756zm-4.587-12.379v-6.409h-1.687c-1.237 0-2.125.36-2.664 1.086-.383.522-.574 1.231-.574 2.136 0 1.04.293 1.832.877 2.372.585.545 1.394.815 2.43.815h1.618zM394.54 337.185c0 1.352-.48 2.511-1.44 3.47-.96.965-2.115 1.444-3.463 1.444-1.349 0-2.503-.479-3.463-1.444-.96-.959-1.44-2.118-1.44-3.47 0-1.353.48-2.512 1.44-3.471.96-.964 2.114-1.444 3.463-1.444 1.348 0 2.503.48 3.463 1.444.96.959 1.44 2.118 1.44 3.471zm-1.048 0c0-1.068-.376-1.98-1.13-2.733-.754-.758-1.662-1.135-2.725-1.135-1.063 0-1.972.377-2.726 1.135-.753.753-1.13 1.665-1.13 2.733 0 1.067.377 1.979 1.13 2.733.754.757 1.663 1.134 2.726 1.134s1.971-.377 2.725-1.134c.754-.754 1.13-1.666 1.13-2.733zm-1.665 2.245c.126.21.103.329-.072.361h-.643c-.143.016-.26-.056-.357-.21l-1.26-2.123h-.43v2.095c0 .159-.079.238-.238.238h-.57c-.16 0-.239-.079-.239-.238v-4.88c0-.158.08-.237.238-.237h1.643c.444 0 .817.123 1.118.368.302.246.452.615.452 1.107 0 .587-.3 1.063-.904 1.428l1.262 2.091zm-1.405-3.519c0-.476-.27-.714-.809-.714h-.548v1.5h.548c.254 0 .452-.064.595-.191.143-.127.214-.325.214-.595" fill="#79b33e" fill-rule="nonzero"/>
</svg>
